<svg width="1300" height="1600" viewBox="0 0 1300 1600" fill="none" xmlns="http://www.w3.org/2000/svg">
<rect width="1300" height="1600" fill="#2A7065"/>
<path d="M657.299 213.265C657.3 216.591 654.478 219.288 650.996 219.288C647.513 219.288 644.69 216.591 644.691 213.265C644.692 209.941 647.514 207.247 650.995 207.247C654.475 207.247 657.297 209.941 657.299 213.265Z" fill="white"/>
<path fill-rule="evenodd" clip-rule="evenodd" d="M1224.08 1541.55L1179.78 59H119.304L75 1541.55H1224.08ZM78.6944 1522.4C80.4095 1522.57 82.0866 1522.99 83.6677 1523.67C85.7252 1524.56 87.5801 1525.85 89.1273 1527.49C90.6747 1529.12 91.8841 1531.06 92.6856 1533.2C93.3016 1534.84 93.6664 1536.58 93.7725 1538.34H356.329L360.427 1269.7H526.811C527.656 1267.28 528.571 1264.89 529.556 1262.52C536.178 1246.6 545.815 1232.16 557.915 1220.02C569.998 1207.89 584.307 1198.27 600.027 1191.72C615.737 1185.18 632.559 1181.81 649.541 1181.81C666.524 1181.81 683.347 1185.18 699.056 1191.72C714.777 1198.27 729.085 1207.89 741.169 1220.02C753.268 1232.16 762.906 1246.6 769.528 1262.52C770.513 1264.89 771.428 1267.28 772.273 1269.7H938.654L942.752 1538.34H1205.31C1205.41 1536.58 1205.78 1534.84 1206.4 1533.2C1207.2 1531.06 1208.41 1529.12 1209.95 1527.49C1211.5 1525.85 1213.36 1524.56 1215.41 1523.67C1216.99 1522.99 1218.67 1522.57 1220.39 1522.4L1198.08 772.026H776.041C775.703 840.411 719.375 895.973 649.54 895.973C579.706 895.973 523.378 840.411 523.04 772.026H100.997L78.6944 1522.4ZM1220.48 1525.62C1219.18 1525.77 1217.9 1526.11 1216.7 1526.63C1215.01 1527.35 1213.49 1528.41 1212.23 1529.75C1210.96 1531.09 1209.97 1532.68 1209.32 1534.43C1208.85 1535.68 1208.56 1537 1208.45 1538.34H1220.86L1220.48 1525.62ZM359.454 1538.34H512.569L513.439 1416.25H775.292L776.095 1538.34H939.627L935.62 1272.81H363.461L359.454 1538.34ZM515.694 1538.34H772.97L772.207 1419.42H516.522L515.694 1538.34ZM78.2206 1538.34H90.6314C90.524 1537 90.2337 1535.68 89.7638 1534.43C89.1083 1532.68 88.119 1531.09 86.8529 1529.75C85.587 1528.41 84.0687 1527.35 82.3851 1526.63C81.1784 1526.11 79.9035 1525.77 78.5988 1525.62L78.2206 1538.34ZM649.541 1184.9C632.959 1184.9 616.534 1188.19 601.195 1194.58C585.845 1200.98 571.874 1210.36 560.077 1222.21C548.265 1234.07 538.857 1248.17 532.394 1263.71C531.572 1265.69 530.799 1267.68 530.077 1269.7H769.007C768.285 1267.68 767.512 1265.69 766.69 1263.71C760.227 1248.17 750.819 1234.07 739.007 1222.21C727.209 1210.36 713.239 1200.98 697.889 1194.58C682.55 1188.19 666.124 1184.9 649.541 1184.9ZM526.039 772.026C526.399 838.767 581.385 892.979 649.54 892.979C717.696 892.979 772.682 838.767 773.042 772.026H655.865C655.189 774.849 652.615 776.952 649.54 776.952C646.466 776.952 643.892 774.849 643.216 772.026H526.039ZM136.464 61.7314C136.276 63.2364 135.85 64.7151 135.196 66.1166C134.346 67.9406 133.128 69.5979 131.614 70.9944C130.099 72.3912 128.316 73.4997 126.368 74.2558C124.87 74.8369 123.297 75.1994 121.703 75.337L101.084 769.071H523.06C524.326 701.211 580.642 646.805 649.54 646.805C718.439 646.805 774.755 701.211 776.021 769.071H1198L1177.38 75.337C1175.78 75.1994 1174.21 74.8369 1172.71 74.2558C1170.76 73.4997 1168.98 72.3912 1167.47 70.9944C1165.95 69.5979 1164.73 67.9406 1163.88 66.1166C1163.23 64.7151 1162.8 63.2364 1162.62 61.7314H920.229L923.817 297.016H765.974C765.201 299.19 764.361 301.345 763.455 303.478C757.344 317.848 748.326 330.926 736.913 341.957C725.486 353 711.887 361.771 696.895 367.759C681.893 373.751 665.799 376.837 649.541 376.837C633.284 376.837 617.191 373.751 602.189 367.759C587.197 361.771 573.598 353 562.17 341.957C550.757 330.926 541.739 317.848 535.629 303.478C534.722 301.345 533.882 299.19 533.109 297.016H375.263L378.852 61.7314H136.464ZM649.54 649.721C582.277 649.721 527.303 702.83 526.059 769.071H643.217C643.895 766.249 646.468 764.149 649.54 764.149C652.613 764.149 655.186 766.249 655.864 769.071H773.022C771.778 702.83 716.804 649.721 649.54 649.721ZM536.208 297.016C536.869 298.827 537.58 300.624 538.337 302.404C544.304 316.432 553.109 329.197 564.252 339.964C575.408 350.743 588.684 359.302 603.319 365.147C617.963 370.995 633.672 374.007 649.541 374.007C665.411 374.007 681.121 370.995 695.765 365.147C710.4 359.302 723.676 350.743 734.832 339.964C745.975 329.197 754.78 316.432 760.747 302.404C761.504 300.624 762.214 298.827 762.876 297.016H536.208ZM378.229 294.212H920.852L917.344 61.7314H766.374L767.067 167.073H522.34L523.091 61.7314H381.737L378.229 294.212ZM525.262 164.309H764.148L763.489 61.7314H525.976L525.262 164.309ZM121.785 72.588C122.999 72.4598 124.195 72.1721 125.337 71.7289C126.931 71.1104 128.39 70.2037 129.629 69.0611C130.869 67.9187 131.865 66.5625 132.561 65.0704C133.06 64.0011 133.396 62.8768 133.565 61.7314H122.107L121.785 72.588ZM1165.52 61.7314C1165.68 62.8768 1166.02 64.0011 1166.52 65.0704C1167.22 66.5625 1168.21 67.9187 1169.45 69.0611C1170.69 70.2037 1172.15 71.1104 1173.74 71.7289C1174.89 72.1721 1176.08 72.4598 1177.3 72.588L1176.97 61.7314H1165.52Z" fill="white"/>
<path fill-rule="evenodd" clip-rule="evenodd" d="M657.797 1363.65C657.799 1367.42 654.796 1370.47 651.089 1370.47C647.383 1370.47 644.379 1367.42 644.38 1363.65C644.381 1359.89 647.384 1356.83 651.088 1356.83C654.792 1356.83 657.796 1359.89 657.797 1363.65Z" fill="white"/>
</svg>
