<svg width="310" height="375" viewBox="0 0 310 375" fill="none" xmlns="http://www.w3.org/2000/svg">
<mask id="path-1-outside-1_2754_76" maskUnits="userSpaceOnUse" x="30.9453" y="-0.969238" width="248" height="376" fill="black">
<rect fill="white" x="30.9453" y="-0.969238" width="248" height="376"/>
<path d="M260.592 216.188L260.643 215.917C260.765 215.264 260.885 214.596 260.945 213.977C260.974 213.68 261.02 213.425 261.083 213.212C261.194 212.841 261.234 212.52 261.277 212.179C261.311 211.912 261.347 211.63 261.418 211.305C261.517 210.849 261.574 210.397 261.586 209.951C261.59 209.865 261.602 209.778 261.623 209.694C261.717 209.344 261.769 208.951 261.779 208.515C261.781 208.398 261.794 208.281 261.817 208.165C261.954 207.488 262.027 207.072 262.037 206.918C262.076 206.226 262.106 205.841 262.125 205.761C262.224 205.343 262.278 204.961 262.287 204.615C262.298 204.173 262.366 203.559 262.49 202.775C262.54 202.461 262.548 202.135 262.555 201.816C262.564 201.46 262.573 201.11 262.638 200.79C262.727 200.345 262.777 199.85 262.787 199.306C262.804 198.403 262.867 197.414 262.977 196.34C263.039 195.747 263.046 195.138 263.052 194.534C263.06 193.827 263.068 193.126 263.163 192.466C263.267 191.74 263.317 190.972 263.314 190.163C263.31 188.92 263.363 187.182 263.473 184.947C263.539 183.609 263.572 181.995 263.572 180.104C263.573 178.621 263.614 177.006 263.694 175.261C263.705 175.026 263.726 174.79 263.747 174.553L263.757 174.442C263.784 174.13 263.809 173.815 263.809 173.495C263.805 168.423 263.834 161.09 263.897 151.496C263.918 148.505 263.901 143.206 263.848 135.599C263.82 131.522 263.81 125.946 263.819 118.871C263.821 116.67 263.774 114.228 263.678 111.543C263.59 109.091 263.553 106.609 263.567 104.097C263.58 101.921 263.55 99.2381 263.477 96.0469C263.357 90.6783 263.298 87.6172 263.301 86.8635C263.312 85.0393 263.316 83.9951 263.314 83.7306C263.309 82.856 263.273 81.8139 263.207 80.6042C263.064 78.0199 263.098 74.8808 263.145 72.0856C263.145 72.0856 262.053 72.0398 261.617 71.9694C261.262 71.912 260.914 71.8559 260.569 71.8559C260.236 71.8568 259.834 71.7906 259.416 71.7218C259.017 71.6562 258.603 71.5882 258.221 71.5733C257.857 71.5594 257.544 71.5171 257.283 71.4465C257.066 71.3874 256.818 71.371 256.578 71.3551C256.394 71.3429 256.214 71.331 256.056 71.3003C252.437 70.6098 249.605 69.9691 247.559 69.3782C240.789 67.4256 234.052 64.7022 228.203 60.6894C224.654 58.2539 221.656 55.4363 219.209 52.2366C217.137 49.5271 215.345 46.5751 213.832 43.3807C212.983 41.5876 212.298 40.0236 211.779 38.6886C209.925 33.927 208.551 28.9673 207.657 23.8095C207.453 22.6266 207.349 22.0309 207.345 22.0223C207.277 21.835 207.238 21.5042 207.228 21.0299C207.222 20.7773 207.178 20.4412 207.095 20.0215C207.072 19.9061 207.059 19.789 207.056 19.6715C207.037 18.8707 206.949 18.0716 206.792 17.274C206.763 17.1298 206.747 16.9831 206.745 16.8357C206.739 16.309 206.687 15.7603 206.59 15.1897V15.032L206.406 15.0324C206.195 15.0302 189.032 15.0302 154.917 15.0324C120.802 15.0345 103.639 15.0366 103.427 15.0388H103.244C103.244 15.4164 103.2 15.7624 103.159 16.0844C103.124 16.3519 103.092 16.6031 103.089 16.8421C103.087 16.9895 103.071 17.1362 103.043 17.2805C102.885 18.078 102.797 18.8771 102.778 19.6779C102.775 19.7954 102.762 19.9125 102.74 20.0279C102.656 20.4476 102.612 20.7837 102.607 21.0364C102.596 21.5106 102.557 21.8414 102.49 22.0287C102.485 22.0373 102.381 22.633 102.177 23.816C101.284 28.9737 99.911 33.9339 98.0584 38.6967C97.5392 40.0316 96.8549 41.5956 96.0055 43.3888C94.4926 46.5832 92.7009 49.5351 90.6304 52.2446C88.1826 55.4444 85.1847 58.2625 81.6365 60.699C75.7886 64.7118 69.0513 67.4368 62.2819 69.3895C60.2359 69.9815 57.4036 70.6227 53.7849 71.3132C53.6269 71.3439 53.447 71.3558 53.2626 71.368C53.0226 71.3839 52.7748 71.4003 52.5573 71.4593C52.2966 71.53 51.9841 71.5722 51.6198 71.5862C51.2374 71.601 50.8238 71.6691 50.425 71.7346C50.0065 71.8035 49.6044 71.8696 49.272 71.8688C48.9275 71.8695 48.5814 71.9256 48.2273 71.983C47.7905 72.0538 46.7703 72.1 46.7703 72.1C46.8291 75.0225 46.7842 77.9252 46.6357 80.6186C46.5695 81.8283 46.5337 82.8705 46.5283 83.7451C46.5262 84.0095 46.5305 85.0538 46.5412 86.878C46.5454 87.6316 46.4872 90.6927 46.3665 96.0614C46.2949 99.2526 46.2655 101.936 46.2783 104.111C46.2922 106.624 46.2554 109.106 46.1677 111.557C46.0727 114.242 46.0262 116.685 46.0283 118.886C46.0379 125.961 46.0289 131.537 46.0011 135.613C45.9487 143.22 45.9332 148.519 45.9546 151.51C46.0187 161.104 46.0486 168.437 46.0443 173.51C46.0443 173.871 46.0763 174.226 46.108 174.579C46.129 174.812 46.1499 175.044 46.1613 175.276C46.2415 177.021 46.2821 178.635 46.2831 180.119C46.2831 182.009 46.3163 183.624 46.3825 184.962C46.4936 187.196 46.547 188.935 46.5428 190.177C46.5396 190.987 46.5898 191.754 46.6934 192.48C46.7885 193.14 46.7964 193.841 46.8044 194.548C46.8112 195.152 46.818 195.762 46.8793 196.355C46.9893 197.429 47.0529 198.417 47.07 199.321C47.0807 199.865 47.1309 200.359 47.2207 200.804C47.2856 201.125 47.2942 201.474 47.3029 201.83C47.3108 202.15 47.3187 202.475 47.3681 202.789C47.492 203.574 47.5599 204.187 47.5716 204.629C47.5802 204.975 47.6341 205.357 47.7335 205.776C47.7527 205.855 47.7821 206.241 47.8216 206.932C47.8313 207.086 47.9044 207.502 48.0412 208.18C48.0646 208.295 48.0775 208.412 48.0797 208.53C48.0893 208.966 48.1411 209.358 48.2351 209.709C48.2564 209.793 48.2688 209.879 48.272 209.965C48.2848 210.412 48.3409 210.863 48.4402 211.319C48.5117 211.644 48.547 211.923 48.5808 212.189C48.6242 212.532 48.665 212.854 48.7768 213.227C48.8398 213.44 48.8858 213.695 48.9146 213.991C48.9837 214.696 49.1288 215.465 49.2677 216.201C49.3607 216.694 49.451 217.172 49.514 217.607C49.5727 218.004 49.7432 218.918 50.0252 220.347C51.131 225.949 52.4804 231.486 54.0958 236.92C55.5884 241.94 57.2124 246.732 58.9677 251.298C59.0169 251.427 59.1691 251.815 59.4245 252.464C62.7696 260.964 66.6266 269.037 70.9953 276.684C77.0862 287.346 84.018 297.331 91.7906 306.64C93.8195 309.069 95.6444 311.174 97.2651 312.957C97.4671 313.178 97.6735 313.388 97.8759 313.594C98.0797 313.8 98.2798 314.004 98.4687 314.212C100.252 316.182 101.354 317.374 101.776 317.788C103.623 319.601 104.848 320.822 105.451 321.451C106.667 322.717 108.414 324.392 110.693 326.477C110.942 326.705 111.269 327.006 111.673 327.38C117.034 332.363 122.944 337.266 129.402 342.089C130.739 343.087 132.014 344.016 133.228 344.873C139.909 349.591 147.037 354.117 154.94 358.031C162.842 354.116 169.967 349.589 176.648 344.87C177.862 344.012 179.137 343.084 180.474 342.085C186.931 337.262 192.841 332.358 198.202 327.375C198.606 327 198.932 326.699 199.181 326.471C201.459 324.385 203.206 322.71 204.422 321.445C205.025 320.815 206.25 319.594 208.096 317.782C208.518 317.368 209.621 316.175 211.404 314.204C211.593 313.996 211.793 313.792 211.997 313.585C212.199 313.38 212.405 313.17 212.608 312.949C214.227 311.166 216.052 309.06 218.081 306.631C225.852 297.322 232.783 287.336 238.873 276.673C243.24 269.026 247.096 260.952 250.44 252.451C250.696 251.802 250.848 251.414 250.897 251.285C252.651 246.719 254.274 241.927 255.766 236.907C257.381 231.473 258.73 225.936 259.835 220.334C260.117 218.905 260.287 217.992 260.346 217.594C260.409 217.16 260.499 216.681 260.592 216.188Z"/>
</mask>
<path d="M260.592 216.188L267.962 217.578C267.979 217.487 267.998 217.39 268.016 217.292L260.644 215.911L253.273 214.529C253.256 214.617 253.24 214.705 253.222 214.798L260.592 216.188ZM263.757 174.442L271.228 175.101C271.227 175.104 271.227 175.105 271.227 175.105C271.227 175.105 271.227 175.105 271.227 175.105C271.227 175.104 271.227 175.104 271.228 175.103C271.228 175.101 271.228 175.098 271.228 175.094C271.229 175.089 271.229 175.084 271.23 175.078L263.758 174.422L256.287 173.767C256.287 173.764 256.288 173.762 256.288 173.761C256.288 173.76 256.288 173.76 256.288 173.762C256.287 173.763 256.287 173.766 256.287 173.769C256.287 173.773 256.286 173.778 256.286 173.783L263.757 174.442ZM46.7703 72.1L46.0919 57.1154L31.4793 57.7769L31.7734 72.4015L46.7703 72.1ZM260.592 216.188L275.332 218.968L275.333 218.962L260.592 216.188ZM260.643 215.917L275.384 218.691L275.387 218.678L260.643 215.917ZM260.945 213.977L275.874 215.44L275.875 215.429L260.945 213.977ZM261.083 213.212L246.705 208.939L246.702 208.947L246.7 208.956L261.083 213.212ZM261.277 212.179L246.396 210.298L246.395 210.3L261.277 212.179ZM261.418 211.305L276.068 214.526L276.071 214.512L276.074 214.498L261.418 211.305ZM261.586 209.951L246.597 209.395L246.594 209.458L246.593 209.52L261.586 209.951ZM261.623 209.694L247.137 205.803L247.107 205.912L247.08 206.021L261.623 209.694ZM261.779 208.515L276.775 208.846L276.776 208.817L276.776 208.787L261.779 208.515ZM261.817 208.165L276.517 211.153L276.519 211.143L276.521 211.133L261.817 208.165ZM262.037 206.918L277.008 207.852L277.01 207.813L277.012 207.774L262.037 206.918ZM262.125 205.762L276.701 209.301L276.71 209.264L276.719 209.226L262.125 205.762ZM262.287 204.615L247.292 204.217L247.292 204.231L247.291 204.245L262.287 204.615ZM262.49 202.775L277.307 205.115L277.308 205.103L262.49 202.775ZM262.555 201.816L277.551 202.184L277.551 202.183L262.555 201.816ZM262.638 200.79L277.338 203.771L277.34 203.762L277.342 203.754L262.638 200.79ZM262.787 199.306L247.789 199.022L247.789 199.032L247.789 199.041L262.787 199.306ZM262.977 196.34L248.057 194.8L248.056 194.811L262.977 196.34ZM263.052 194.534L278.051 194.703V194.703L263.052 194.534ZM263.163 192.466L278.01 194.604L278.011 194.595L278.013 194.586L263.163 192.466ZM263.314 190.163L248.314 190.214L248.314 190.222L263.314 190.163ZM263.473 184.947L248.491 184.206L248.491 184.209L263.473 184.947ZM263.572 180.104L248.572 180.094V180.104H263.572ZM263.694 175.261L248.71 174.562L248.71 174.573L263.694 175.261ZM263.747 174.553L278.688 175.884L278.688 175.877L263.747 174.553ZM263.757 174.442L278.698 175.766L278.699 175.757L263.757 174.442ZM263.809 173.495H278.809L278.809 173.482L263.809 173.495ZM263.897 151.496L248.898 151.394L248.898 151.397L263.897 151.496ZM263.848 135.599L248.848 135.701L248.848 135.704L263.848 135.599ZM263.819 118.871L278.819 118.89V118.886L263.819 118.871ZM263.678 111.543L248.687 112.078L248.687 112.08L263.678 111.543ZM263.567 104.097L248.567 104.008L248.567 104.014L263.567 104.097ZM263.477 96.0469L248.481 96.3841L248.481 96.3884L263.477 96.0469ZM263.301 86.8635L248.301 86.7758L248.301 86.7877L248.301 86.7997L263.301 86.8635ZM263.314 83.7306L248.314 83.8221L248.314 83.8368L248.314 83.8514L263.314 83.7306ZM263.207 80.6042L278.184 79.784L278.184 79.7784L263.207 80.6042ZM263.145 72.0856L278.143 72.3395L278.391 57.7115L263.773 57.0987L263.145 72.0856ZM261.617 71.9694L264.009 57.1613L264.008 57.1613L261.617 71.9694ZM260.569 71.8559V56.8559H260.55L260.531 56.856L260.569 71.8559ZM259.416 71.7218L256.981 86.523L256.982 86.523L259.416 71.7218ZM258.221 71.5733L258.804 56.5847L258.793 56.5842L258.221 71.5733ZM257.283 71.4465L253.355 85.923L253.36 85.9242L257.283 71.4465ZM256.578 71.3551L255.587 86.3224L255.587 86.3224L256.578 71.3551ZM256.056 71.3003L258.916 56.5755L258.891 56.5708L258.867 56.5662L256.056 71.3003ZM247.559 69.3782L251.721 54.9672L251.716 54.9658L247.559 69.3782ZM228.203 60.6894L219.714 73.0564L219.717 73.0586L228.203 60.6894ZM219.209 52.2366L207.293 61.3474L207.295 61.3502L219.209 52.2366ZM213.832 43.3807L227.389 36.9605L227.388 36.9593L213.832 43.3807ZM211.779 38.6886L225.759 33.2511L225.757 33.2471L211.779 38.6886ZM207.657 23.8095L192.876 26.3595L192.878 26.372L207.657 23.8095ZM207.345 22.0223L193.228 27.0943L193.527 27.9257L193.921 28.7164L207.345 22.0223ZM207.228 21.0299L192.231 21.3466L192.231 21.3572L192.231 21.3677L207.228 21.0299ZM207.095 20.0215L192.369 22.8787L192.376 22.9111L192.382 22.9434L207.095 20.0215ZM207.056 19.6715L192.061 20.0317L192.061 20.0553L192.062 20.0789L207.056 19.6715ZM206.792 17.274L221.509 14.3759L221.505 14.357L221.502 14.3381L206.792 17.274ZM206.745 16.8357L191.746 17.0182L191.747 17.0353L191.747 17.0523L206.745 16.8357ZM206.59 15.1897H191.59V16.4586L191.803 17.7094L206.59 15.1897ZM206.59 15.032H221.59V4.48227e-05L206.558 0.0320091L206.59 15.032ZM206.406 15.0324L206.253 30.0316L206.345 30.0325L206.437 30.0323L206.406 15.0324ZM154.917 15.0324L154.916 0.0323677L154.917 15.0324ZM103.427 15.0388V30.0388H103.503L103.579 30.038L103.427 15.0388ZM103.244 15.0388V0.0387907H88.2444V15.0388H103.244ZM103.159 16.0844L88.281 14.1715L88.281 14.1716L103.159 16.0844ZM103.089 16.8421L118.087 17.0588L118.088 17.0417L118.088 17.0247L103.089 16.8421ZM103.043 17.2805L88.3326 14.3445L88.3289 14.3634L88.3252 14.3822L103.043 17.2805ZM102.778 19.6779L117.773 20.0861L117.773 20.062L117.774 20.038L102.778 19.6779ZM102.74 20.0279L117.452 22.9496L117.459 22.9177L117.465 22.8858L102.74 20.0279ZM102.607 21.0364L117.603 21.3743L117.603 21.3639L117.603 21.3534L102.607 21.0364ZM102.49 22.0287L115.91 28.7298L116.306 27.9359L116.606 27.1007L102.49 22.0287ZM102.177 23.816L116.957 26.3755L116.959 26.366L102.177 23.816ZM98.0584 38.6967L84.0788 33.2589L84.0787 33.2591L98.0584 38.6967ZM96.0055 43.3888L82.4494 36.9674L82.4489 36.9685L96.0055 43.3888ZM90.6304 52.2446L102.544 61.3583L102.549 61.3525L90.6304 52.2446ZM81.6365 60.699L90.1236 73.0671L90.1277 73.0643L81.6365 60.699ZM62.2819 69.3895L58.1247 54.9771L58.1127 54.9805L62.2819 69.3895ZM53.7849 71.3132L50.9735 56.579L50.9494 56.5836L50.9252 56.5883L53.7849 71.3132ZM53.2626 71.368L54.2533 86.3352L54.2536 86.3352L53.2626 71.368ZM52.5573 71.4593L56.4813 85.937L56.4856 85.9358L52.5573 71.4593ZM51.6198 71.5862L51.0473 56.5971L51.0362 56.5975L51.6198 71.5862ZM50.425 71.7346L52.8591 86.5358H52.8591L50.425 71.7346ZM49.272 71.8688L49.3092 56.8688L49.275 56.8687L49.2407 56.8688L49.272 71.8688ZM48.2273 71.983L50.6276 86.7897L50.6278 86.7897L48.2273 71.983ZM46.6357 80.6186L31.6585 79.7928L31.6581 79.7985L46.6357 80.6186ZM46.5283 83.7451L61.5278 83.8663L61.528 83.8515L61.5281 83.8367L46.5283 83.7451ZM46.5412 86.878L61.5409 86.7929L61.5409 86.7901L46.5412 86.878ZM46.3665 96.0614L31.3703 95.7242L31.3702 95.725L46.3665 96.0614ZM46.2783 104.111L61.2781 104.028L61.2781 104.023L46.2783 104.111ZM46.1677 111.557L31.1773 111.021L31.1771 111.026L46.1677 111.557ZM46.0283 118.886L31.0283 118.9L31.0283 118.906L46.0283 118.886ZM46.0011 135.613L61.0007 135.716L61.0007 135.715L46.0011 135.613ZM45.9546 151.51L60.9543 151.41L60.9542 151.403L45.9546 151.51ZM46.0443 173.51L31.0443 173.497V173.51H46.0443ZM46.108 174.579L31.1684 175.923V175.923L46.108 174.579ZM46.1613 175.276L61.1455 174.588L61.1443 174.561L61.143 174.534L46.1613 175.276ZM46.2831 180.119H61.2831L61.2831 180.108L46.2831 180.119ZM46.3825 184.962L31.4008 185.704L31.401 185.707L46.3825 184.962ZM46.5428 190.177L61.5426 190.237L61.5427 190.229L46.5428 190.177ZM46.6934 192.48L31.844 194.6L31.8453 194.61L31.8467 194.619L46.6934 192.48ZM46.8044 194.548L31.8053 194.717V194.717L46.8044 194.548ZM46.8793 196.355L61.8011 194.826L61.7999 194.814L46.8793 196.355ZM47.07 199.321L32.0727 199.604L32.0729 199.615L47.07 199.321ZM47.2207 200.804L32.5163 203.768L32.5181 203.777L32.5198 203.785L47.2207 200.804ZM47.3029 201.83L62.2984 201.461V201.461L47.3029 201.83ZM47.3681 202.789L32.5498 205.117L32.5518 205.129L47.3681 202.789ZM47.5716 204.629L62.567 204.259L62.5667 204.245L62.5663 204.231L47.5716 204.629ZM47.7335 205.776L33.1391 209.24L33.148 209.278L33.157 209.315L47.7335 205.776ZM47.8216 206.932L32.8461 207.788L32.8483 207.827L32.8507 207.866L47.8216 206.932ZM48.0412 208.18L33.3376 211.147L33.3397 211.158L33.3418 211.168L48.0412 208.18ZM48.0797 208.53L33.0821 208.803L33.0827 208.832L33.0833 208.861L48.0797 208.53ZM48.2351 209.709L62.778 206.034L62.7507 205.926L62.7218 205.818L48.2351 209.709ZM48.272 209.965L63.2658 209.535L63.264 209.473L63.2617 209.411L48.272 209.965ZM48.4402 211.319L33.7841 214.512L33.7871 214.526L33.7901 214.54L48.4402 211.319ZM48.5808 212.189L33.6998 214.075L33.6998 214.075L48.5808 212.189ZM48.7768 213.227L63.1603 208.971L63.153 208.946L63.1455 208.921L48.7768 213.227ZM48.9146 213.991L33.9851 215.443L33.9862 215.455L48.9146 213.991ZM49.2677 216.201L34.528 218.983L34.528 218.983L49.2677 216.201ZM49.514 217.607L34.6686 219.755L34.672 219.779L34.6755 219.803L49.514 217.607ZM50.0252 220.347L35.3091 223.251L35.3091 223.251L50.0252 220.347ZM54.0958 236.92L39.7177 241.194L39.718 241.195L54.0958 236.92ZM58.9677 251.298L72.9775 245.938L72.9731 245.927L72.9686 245.915L58.9677 251.298ZM59.4245 252.464L73.3824 246.971L73.3822 246.97L59.4245 252.464ZM70.9953 276.684L84.0199 269.243L84.0195 269.243L70.9953 276.684ZM91.7906 306.64L80.277 316.254L80.2783 316.255L91.7906 306.64ZM97.2651 312.957L86.1673 323.048L86.1735 323.055L86.1796 323.062L97.2651 312.957ZM97.8759 313.594L87.1853 324.115L87.187 324.117L97.8759 313.594ZM98.4687 314.212L109.589 304.146L109.588 304.144L98.4687 314.212ZM101.776 317.788L112.285 307.084L112.284 307.084L101.776 317.788ZM105.451 321.451L94.6249 331.833L94.63 331.839L94.6351 331.844L105.451 321.451ZM110.693 326.477L120.825 315.416L120.82 315.411L110.693 326.477ZM111.673 327.38L121.885 316.393L121.872 316.381L121.859 316.369L111.673 327.38ZM129.402 342.089L138.381 330.073L138.377 330.07L129.402 342.089ZM133.228 344.873L124.572 357.124L124.575 357.126L133.228 344.873ZM154.94 358.031L148.283 371.473L154.941 374.77L161.598 371.472L154.94 358.031ZM176.648 344.87L185.303 357.122L185.304 357.121L176.648 344.87ZM180.474 342.085L171.497 330.068L171.495 330.07L180.474 342.085ZM198.202 327.375L188 316.379L187.99 316.388L198.202 327.375ZM199.181 326.471L189.052 315.407L189.049 315.41L199.181 326.471ZM204.422 321.445L215.238 331.838L215.243 331.832L215.248 331.827L204.422 321.445ZM208.096 317.782L197.588 307.078L197.588 307.078L208.096 317.782ZM211.404 314.204L200.285 304.136L200.281 304.141L211.404 314.204ZM211.997 313.585L201.308 303.062L201.307 303.062L211.997 313.585ZM212.608 312.949L223.693 323.054L223.701 323.045L223.709 323.036L212.608 312.949ZM218.081 306.632L229.593 316.247L229.595 316.244L218.081 306.632ZM238.873 276.673L225.848 269.233L225.847 269.234L238.873 276.673ZM250.44 252.451L236.483 246.957L236.481 246.96L250.44 252.451ZM250.897 251.285L236.895 245.905L236.891 245.916L236.887 245.926L250.897 251.285ZM255.766 236.907L241.388 232.633L241.387 232.635L255.766 236.907ZM259.835 220.334L245.119 217.429L245.118 217.433L259.835 220.334ZM260.346 217.594L275.184 219.79L275.188 219.766L275.191 219.743L260.346 217.594ZM260.592 216.188L275.333 218.962L275.384 218.691L260.643 215.917L245.902 213.143L245.851 213.414L260.592 216.188ZM260.643 215.917L275.387 218.678C275.506 218.043 275.742 216.787 275.874 215.44L260.945 213.977L246.017 212.513C246.027 212.413 246.031 212.407 246.009 212.542C245.988 212.677 245.955 212.857 245.9 213.155L260.643 215.917ZM260.945 213.977L275.875 215.429C275.84 215.783 275.748 216.517 275.467 217.469L261.083 213.212L246.7 208.956C246.292 210.333 246.108 211.577 246.016 212.524L260.945 213.977ZM261.083 213.212L275.461 217.486C275.964 215.794 276.123 214.342 276.159 214.057L261.277 212.179L246.395 210.3C246.345 210.697 246.423 209.888 246.705 208.939L261.083 213.212ZM261.277 212.179L276.159 214.059C276.195 213.772 276.16 214.108 276.068 214.526L261.418 211.305L246.768 208.084C246.533 209.152 246.427 210.053 246.396 210.298L261.277 212.179ZM261.418 211.305L276.074 214.498C276.363 213.174 276.539 211.798 276.58 210.382L261.586 209.951L246.593 209.52C246.608 208.997 246.672 208.523 246.762 208.111L261.418 211.305ZM261.586 209.951L276.576 210.507C276.54 211.477 276.402 212.436 276.167 213.367L261.623 209.694L247.08 206.021C246.802 207.121 246.639 208.252 246.597 209.395L261.586 209.951ZM261.623 209.694L276.11 213.585C276.571 211.867 276.744 210.251 276.775 208.846L261.779 208.515L246.782 208.184C246.794 207.651 246.863 206.821 247.137 205.803L261.623 209.694ZM261.779 208.515L276.776 208.787C276.762 209.586 276.674 210.377 276.517 211.153L261.817 208.165L247.118 205.178C246.913 206.184 246.8 207.21 246.781 208.244L261.779 208.515ZM261.817 208.165L276.521 211.133C276.566 210.907 276.918 209.282 277.008 207.852L262.037 206.918L247.066 205.984C247.087 205.651 247.115 205.392 247.13 205.257C247.148 205.108 247.164 204.993 247.173 204.927C247.192 204.799 247.205 204.729 247.201 204.746C247.196 204.779 247.171 204.915 247.114 205.198L261.817 208.165ZM262.037 206.918L277.012 207.774C277.03 207.462 277.041 207.302 277.045 207.251C277.048 207.217 277.042 207.297 277.027 207.44C277.02 207.509 277.002 207.67 276.973 207.882C276.957 207.991 276.933 208.157 276.898 208.359C276.866 208.541 276.804 208.88 276.701 209.301L262.125 205.762L247.549 202.222C247.366 202.973 247.282 203.58 247.262 203.729C247.226 203.98 247.203 204.19 247.19 204.317C247.163 204.576 247.144 204.81 247.132 204.969C247.106 205.303 247.083 205.682 247.061 206.061L262.037 206.918ZM262.125 205.762L276.719 209.226C277.004 208.027 277.242 206.59 277.282 204.985L262.287 204.615L247.291 204.245C247.314 203.332 247.445 202.659 247.53 202.297L262.125 205.762ZM262.287 204.615L277.281 205.013C277.279 205.103 277.276 205.178 277.273 205.237C277.269 205.297 277.266 205.344 277.264 205.379C277.258 205.447 277.255 205.48 277.255 205.472C277.256 205.466 277.26 205.433 277.269 205.369C277.277 205.307 277.29 205.223 277.307 205.115L262.49 202.775L247.674 200.435C247.515 201.443 247.329 202.805 247.292 204.217L262.287 204.615ZM262.49 202.775L277.308 205.103C277.537 203.648 277.547 202.325 277.551 202.184L262.555 201.816L247.56 201.447C247.559 201.489 247.558 201.514 247.558 201.537C247.557 201.547 247.557 201.554 247.557 201.559C247.557 201.561 247.557 201.563 247.557 201.564C247.557 201.566 247.557 201.566 247.557 201.566C247.557 201.566 247.557 201.566 247.557 201.564C247.557 201.563 247.557 201.561 247.557 201.559C247.557 201.554 247.558 201.546 247.558 201.536C247.559 201.516 247.56 201.484 247.563 201.444C247.571 201.299 247.595 200.934 247.672 200.447L262.49 202.775ZM262.555 201.816L277.551 202.183C277.557 201.948 277.556 202.086 277.543 202.278C277.528 202.496 277.485 203.047 277.338 203.771L262.638 200.79L247.937 197.809C247.561 199.661 247.561 201.389 247.56 201.448L262.555 201.816ZM262.638 200.79L277.342 203.754C277.642 202.266 277.762 200.851 277.784 199.572L262.787 199.306L247.789 199.041C247.792 198.85 247.813 198.423 247.933 197.826L262.638 200.79ZM262.787 199.306L277.784 199.59C277.792 199.173 277.824 198.606 277.899 197.87L262.977 196.34L248.056 194.811C247.911 196.223 247.816 197.633 247.789 199.022L262.787 199.306ZM262.977 196.34L277.898 197.881C278.042 196.487 278.046 195.183 278.051 194.703L263.052 194.534L248.053 194.365C248.052 194.523 248.05 194.632 248.049 194.734C248.047 194.832 248.045 194.893 248.044 194.934C248.041 195.021 248.041 194.956 248.057 194.8L262.977 196.34ZM263.052 194.534L278.051 194.703C278.052 194.613 278.053 194.539 278.054 194.468C278.055 194.398 278.056 194.341 278.057 194.292C278.059 194.19 278.061 194.142 278.061 194.125C278.062 194.11 278.061 194.147 278.054 194.223C278.048 194.299 278.035 194.43 278.01 194.604L263.163 192.466L248.317 190.327C248.055 192.143 248.059 193.864 248.053 194.365L263.052 194.534ZM263.163 192.466L278.013 194.586C278.229 193.068 278.32 191.568 278.314 190.104L263.314 190.163L248.314 190.222C248.315 190.377 248.305 190.411 248.314 190.346L263.163 192.466ZM263.314 190.163L278.314 190.112C278.311 189.261 278.349 187.828 278.454 185.685L263.473 184.947L248.491 184.209C248.376 186.535 248.308 188.579 248.314 190.214L263.314 190.163ZM263.473 184.947L278.454 185.689C278.537 184.027 278.572 182.151 278.572 180.104H263.572H248.572C248.572 181.839 248.541 183.192 248.491 184.206L263.473 184.947ZM263.572 180.104L278.572 180.115C278.573 178.893 278.606 177.507 278.678 175.949L263.694 175.261L248.71 174.573C248.621 176.506 248.573 178.349 248.572 180.094L263.572 180.104ZM263.694 175.261L278.677 175.961C278.675 176.007 278.673 176.041 278.672 176.061C278.671 176.08 278.67 176.088 278.671 176.081C278.671 176.073 278.673 176.055 278.676 176.022C278.677 176.005 278.679 175.986 278.681 175.963C278.683 175.939 278.685 175.914 278.688 175.884L263.747 174.553L248.806 173.222C248.789 173.408 248.738 173.958 248.71 174.562L263.694 175.261ZM263.747 174.553L278.688 175.877L278.698 175.766L263.757 174.442L248.815 173.119L248.805 173.23L263.747 174.553ZM263.757 174.442L278.699 175.757C278.728 175.425 278.809 174.534 278.809 173.495H263.809H248.809C248.809 173.269 248.818 173.109 248.821 173.052C248.823 173.022 248.824 173.01 248.823 173.024C248.822 173.039 248.82 173.068 248.814 173.128L263.757 174.442ZM263.809 173.495L278.809 173.482C278.805 168.467 278.834 161.178 278.897 151.595L263.897 151.496L248.898 151.397C248.835 161.002 248.805 168.379 248.809 173.508L263.809 173.495ZM263.897 151.496L278.897 151.598C278.918 148.491 278.901 143.096 278.847 135.493L263.848 135.599L248.848 135.704C248.901 143.315 248.917 148.519 248.898 151.394L263.897 151.496ZM263.848 135.599L278.847 135.497C278.82 131.479 278.81 125.949 278.819 118.89L263.819 118.871L248.819 118.853C248.81 125.944 248.82 131.566 248.848 135.701L263.848 135.599ZM263.819 118.871L278.819 118.886C278.821 116.466 278.77 113.836 278.668 111.006L263.678 111.543L248.687 112.08C248.778 114.619 248.821 116.874 248.819 118.857L263.819 118.871ZM263.678 111.543L278.668 111.007C278.588 108.767 278.554 106.491 278.567 104.18L263.567 104.097L248.567 104.014C248.552 106.728 248.592 109.416 248.687 112.078L263.678 111.543ZM263.567 104.097L278.567 104.185C278.581 101.817 278.548 98.9805 278.474 95.7055L263.477 96.0469L248.481 96.3884C248.552 99.4958 248.579 102.025 248.567 104.008L263.567 104.097ZM263.477 96.0469L278.474 95.7097C278.413 93.0316 278.369 90.9431 278.34 89.4367C278.326 88.6826 278.315 88.0872 278.309 87.643C278.306 87.4209 278.303 87.2468 278.302 87.1158C278.301 86.9744 278.301 86.9219 278.301 86.9273L263.301 86.8635L248.301 86.7997C248.297 87.8126 248.364 91.1593 248.481 96.3841L263.477 96.0469ZM263.301 86.8635L278.301 86.9513C278.311 85.2 278.317 84.0088 278.313 83.6098L263.314 83.7306L248.314 83.8514C248.314 83.8368 248.315 83.8858 248.314 84.0507C248.314 84.1971 248.314 84.3958 248.312 84.6509C248.31 85.1601 248.307 85.8671 248.301 86.7758L263.301 86.8635ZM263.314 83.7306L278.314 83.6391C278.306 82.4494 278.259 81.1517 278.184 79.784L263.207 80.6042L248.229 81.4244C248.287 82.476 248.311 83.2627 248.314 83.8221L263.314 83.7306ZM263.207 80.6042L278.184 79.7784C278.075 77.8097 278.095 75.1856 278.143 72.3395L263.145 72.0856L248.147 71.8316C248.101 74.5759 248.053 78.23 248.229 81.43L263.207 80.6042ZM263.145 72.0856C263.773 57.0987 263.774 57.0987 263.774 57.0987C263.774 57.0988 263.774 57.0988 263.775 57.0988C263.775 57.0988 263.775 57.0988 263.776 57.0988C263.777 57.0989 263.777 57.0989 263.778 57.0989C263.779 57.099 263.781 57.099 263.782 57.0991C263.783 57.0991 263.784 57.0992 263.784 57.0992C263.784 57.0992 263.781 57.0991 263.775 57.0988C263.762 57.0982 263.739 57.0971 263.707 57.0956C263.641 57.0923 263.555 57.0877 263.47 57.0824C263.023 57.0548 263.377 57.0593 264.009 57.1613L261.617 71.9694L259.225 86.7775C260.292 86.9499 261.411 87.0124 261.619 87.0253C261.861 87.0403 262.076 87.0515 262.228 87.0591C262.305 87.0629 262.371 87.0659 262.419 87.0681C262.444 87.0692 262.465 87.0702 262.481 87.0709C262.489 87.0712 262.496 87.0715 262.502 87.0718C262.505 87.0719 262.508 87.072 262.51 87.0721C262.512 87.0722 262.513 87.0722 262.514 87.0723C262.514 87.0723 262.515 87.0723 262.515 87.0723C262.516 87.0723 262.516 87.0724 262.516 87.0724C262.516 87.0724 262.517 87.0724 263.145 72.0856ZM261.617 71.9694L264.008 57.1613C263.877 57.1401 262.326 56.8559 260.569 56.8559V71.8559V86.8559C259.946 86.8559 259.481 86.8061 259.28 86.7816C259.113 86.7613 258.996 86.7405 259.226 86.7776L261.617 71.9694ZM260.569 71.8559L260.531 56.856C260.942 56.855 261.27 56.8744 261.484 56.8912C261.701 56.9083 261.861 56.9277 261.94 56.9378C262.02 56.9481 262.061 56.9548 262.037 56.951C262.007 56.9464 261.966 56.9397 261.85 56.9206L259.416 71.7218L256.982 86.523C256.998 86.5256 258.763 86.8605 260.606 86.8559L260.569 71.8559ZM259.416 71.7218L261.85 56.9206C261.66 56.8894 260.291 56.6425 258.804 56.5847L258.221 71.5733L257.637 86.562C257.399 86.5527 257.208 86.5373 257.078 86.5248C256.947 86.5122 256.854 86.5002 256.811 86.4945C256.769 86.4888 256.755 86.4863 256.788 86.4915C256.826 86.4975 256.873 86.5051 256.981 86.523L259.416 71.7218ZM258.221 71.5733L258.793 56.5842C259.196 56.5996 260.069 56.6604 261.207 56.9688L257.283 71.4465L253.36 85.9242C255.019 86.3739 256.517 86.5192 257.648 86.5624L258.221 71.5733ZM257.283 71.4465L261.212 56.97C260.1 56.6684 259.165 56.5407 258.624 56.4795C258.1 56.4203 257.627 56.3918 257.569 56.3879L256.578 71.3551L255.587 86.3224C255.769 86.3344 255.54 86.322 255.255 86.2897C254.952 86.2555 254.249 86.1655 253.355 85.923L257.283 71.4465ZM256.578 71.3551L257.569 56.3879C257.435 56.379 257.562 56.3864 257.726 56.402C257.9 56.4185 258.341 56.4638 258.916 56.5755L256.056 71.3003L253.196 86.0252C253.929 86.1675 254.538 86.2342 254.888 86.2674C255.227 86.2996 255.537 86.319 255.587 86.3224L256.578 71.3551ZM256.056 71.3003L258.867 56.5662C255.427 55.9098 253.115 55.37 251.721 54.9672L247.559 69.3782L243.397 83.7892C246.094 84.5683 249.447 85.3099 253.244 86.0345L256.056 71.3003ZM247.559 69.3782L251.716 54.9658C245.88 53.2824 240.776 51.1244 236.688 48.3202L228.203 60.6894L219.717 73.0586C227.328 78.28 235.699 81.5688 243.402 83.7906L247.559 69.3782ZM228.203 60.6894L236.691 48.3223C234.36 46.7223 232.544 44.9809 231.123 43.1229L219.209 52.2366L207.295 61.3502C210.769 65.8918 214.949 69.7856 219.714 73.0564L228.203 60.6894ZM219.209 52.2366L231.125 43.1257C229.716 41.2828 228.467 39.2374 227.389 36.9605L213.832 43.3807L200.275 49.801C202.223 53.9129 204.559 57.7714 207.293 61.3474L219.209 52.2366ZM213.832 43.3807L227.388 36.9593C226.638 35.3763 226.11 34.1543 225.759 33.2511L211.779 38.6886L197.799 44.1262C198.487 45.8929 199.327 47.7989 200.276 49.8021L213.832 43.3807ZM211.779 38.6886L225.757 33.2471C224.275 29.4386 223.165 25.4449 222.437 21.247L207.657 23.8095L192.878 26.372C193.938 32.4896 195.576 38.4154 197.801 44.1302L211.779 38.6886ZM207.657 23.8095L222.439 21.2596C222.336 20.6655 222.257 20.2071 222.202 19.8917C222.175 19.7375 222.15 19.5986 222.131 19.4892C222.122 19.4406 222.108 19.3615 222.092 19.2778C222.086 19.2458 222.067 19.1471 222.043 19.0256C222.033 18.978 222.001 18.8246 221.956 18.6304C221.936 18.5447 221.885 18.3261 221.809 18.0498C221.772 17.9149 221.7 17.6574 221.594 17.3378C221.538 17.1663 221.267 16.3294 220.768 15.3282L207.345 22.0223L193.921 28.7164C193.633 28.1388 193.442 27.6607 193.342 27.4007C193.231 27.112 193.149 26.8707 193.095 26.7074C192.99 26.3881 192.918 26.131 192.881 25.9965C192.805 25.721 192.754 25.5036 192.734 25.4192C192.69 25.2279 192.659 25.0785 192.651 25.0359C192.628 24.9247 192.612 24.8408 192.61 24.8283C192.601 24.7834 192.598 24.7615 192.602 24.7885C192.61 24.8301 192.625 24.9157 192.65 25.0594C192.699 25.3398 192.774 25.7707 192.876 26.3595L207.657 23.8095ZM207.345 22.0223L221.461 16.9503C221.749 17.7513 221.907 18.4181 221.993 18.8401C222.084 19.2821 222.134 19.6407 222.162 19.8775C222.216 20.3337 222.223 20.6359 222.224 20.6921L207.228 21.0299L192.231 21.3677C192.242 21.8391 192.253 24.3799 193.228 27.0943L207.345 22.0223ZM207.228 21.0299L222.224 20.7132C222.192 19.1911 221.962 17.8765 221.807 17.0996L207.095 20.0215L192.382 22.9434C192.376 22.9129 192.349 22.7737 192.319 22.5498C192.292 22.3435 192.243 21.9196 192.231 21.3466L207.228 21.0299ZM207.095 20.0215L221.82 17.1643C221.954 17.8562 222.032 18.5585 222.051 19.264L207.056 19.6715L192.062 20.0789C192.087 21.0195 192.19 21.956 192.369 22.8787L207.095 20.0215ZM207.056 19.6715L222.052 19.3112C222.012 17.6455 221.828 15.9975 221.509 14.3759L206.792 17.274L192.074 20.1722C192.069 20.1457 192.062 20.0959 192.061 20.0317L207.056 19.6715ZM206.792 17.274L221.502 14.3381C221.652 15.0909 221.733 15.8544 221.744 16.619L206.745 16.8357L191.747 17.0523C191.762 18.1118 191.874 19.1687 192.082 20.2099L206.792 17.274ZM206.745 16.8357L221.744 16.6531C221.727 15.2708 221.593 13.9383 221.377 12.6701L206.59 15.1897L191.803 17.7094C191.781 17.5823 191.75 17.3471 191.746 17.0182L206.745 16.8357ZM206.59 15.1897H221.59V15.032H206.59H191.59V15.1897H206.59ZM206.59 15.032L206.558 0.0320091L206.374 0.0324011L206.406 15.0324L206.437 30.0323L206.622 30.0319L206.59 15.032ZM206.406 15.0324L206.558 0.033143C206.245 0.0299616 188.932 0.0302324 154.916 0.0323677L154.917 15.0324L154.918 30.0324C171.976 30.0313 184.795 30.0308 193.376 30.0308C197.666 30.0308 200.897 30.0309 203.067 30.0312C205.33 30.0314 206.301 30.0321 206.253 30.0316L206.406 15.0324ZM154.917 15.0324L154.916 0.0323677C120.899 0.034502 103.587 0.0363998 103.275 0.0395584L103.427 15.0388L103.579 30.038C103.533 30.0385 104.507 30.0377 106.768 30.0372C108.939 30.0366 112.169 30.0361 116.46 30.0356C125.041 30.0345 137.861 30.0334 154.918 30.0324L154.917 15.0324ZM103.427 15.0388V0.0387907H103.244V15.0388V30.0388H103.427V15.0388ZM103.244 15.0388H88.2444C88.2444 14.6406 88.268 14.3375 88.2824 14.1833C88.2939 14.0602 88.306 13.9771 88.281 14.1715L103.159 16.0844L118.036 17.9973C118.066 17.7616 118.244 16.5107 118.244 15.0388H103.244ZM103.159 16.0844L88.281 14.1716C88.2715 14.2453 88.1055 15.3913 88.0901 16.6595L103.089 16.8421L118.088 17.0247C118.082 17.4975 118.05 17.8467 118.036 17.9803C118.032 18.0181 118.029 18.0475 118.027 18.0662C118.025 18.0848 118.024 18.0956 118.023 18.096C118.023 18.096 118.024 18.0896 118.026 18.0722C118.029 18.0535 118.032 18.0325 118.036 17.9972L103.159 16.0844ZM103.089 16.8421L88.0905 16.6254C88.1016 15.8612 88.1823 15.0977 88.3326 14.3445L103.043 17.2805L117.752 20.2164C117.96 19.1748 118.072 18.1178 118.087 17.0588L103.089 16.8421ZM103.043 17.2805L88.3252 14.3822C88.0058 16.0039 87.8224 17.652 87.7824 19.3178L102.778 19.6779L117.774 20.038C117.772 20.1022 117.765 20.1521 117.76 20.1787L103.043 17.2805ZM102.778 19.6779L87.7836 19.2697C87.8028 18.5656 87.8798 17.8633 88.0144 17.17L102.74 20.0279L117.465 22.8858C117.644 21.9617 117.747 21.0252 117.773 20.0861L102.778 19.6779ZM102.74 20.0279L88.0269 17.1062C87.8728 17.8824 87.6421 19.1971 87.6099 20.7193L102.607 21.0364L117.603 21.3534C117.591 21.9265 117.542 22.3504 117.515 22.5565C117.485 22.7803 117.458 22.9193 117.452 22.9496L102.74 20.0279ZM102.607 21.0364L87.6104 20.6984C87.6117 20.6423 87.6187 20.3403 87.6725 19.8842C87.7004 19.6473 87.7501 19.2887 87.8408 18.8467C87.9274 18.4247 88.0853 17.7578 88.3731 16.9568L102.49 22.0287L116.606 27.1007C117.581 24.3862 117.592 21.8451 117.603 21.3743L102.607 21.0364ZM102.49 22.0287L89.0697 15.3276C88.569 16.3303 88.2976 17.1686 88.2411 17.3405C88.1357 17.6607 88.063 17.9187 88.0258 18.0539C87.9497 18.3307 87.8983 18.5497 87.8783 18.6356C87.8331 18.8302 87.8016 18.9839 87.7918 19.0317C87.7669 19.1534 87.7483 19.2523 87.7423 19.2842C87.7265 19.3681 87.7122 19.4472 87.7035 19.4958C87.6839 19.6053 87.6594 19.7441 87.6325 19.8983C87.5773 20.2136 87.4979 20.6719 87.3954 21.266L102.177 23.816L116.959 26.366C117.06 25.7771 117.135 25.3461 117.184 25.0656C117.209 24.9219 117.224 24.8363 117.232 24.7947C117.237 24.7677 117.233 24.7897 117.224 24.8347C117.222 24.8472 117.206 24.9313 117.183 25.0428C117.175 25.0854 117.144 25.2351 117.1 25.4269C117.08 25.5114 117.029 25.7293 116.953 26.0052C116.916 26.14 116.843 26.3977 116.738 26.7176C116.684 26.8811 116.601 27.1229 116.49 27.4122C116.39 27.6726 116.198 28.1515 115.91 28.7298L102.49 22.0287ZM102.177 23.816L87.3971 21.2565C86.6701 25.4545 85.5608 29.4489 84.0788 33.2589L98.0584 38.6967L112.038 44.1345C114.261 38.419 115.898 32.493 116.957 26.3755L102.177 23.816ZM98.0584 38.6967L84.0787 33.2591C83.7274 34.1622 83.1994 35.3842 82.4494 36.9674L96.0055 43.3888L109.562 49.8101C110.51 47.807 111.351 45.901 112.038 44.1343L98.0584 38.6967ZM96.0055 43.3888L82.4489 36.9685C81.3699 39.2467 80.1209 41.2931 78.712 43.1367L90.6304 52.2446L102.549 61.3525C105.281 57.7771 107.615 53.9196 109.562 49.809L96.0055 43.3888ZM90.6304 52.2446L78.7165 43.1309C77.2946 44.9896 75.4776 46.7322 73.1454 48.3337L81.6365 60.699L90.1277 73.0643C94.8918 69.7928 99.0706 65.8992 102.544 61.3583L90.6304 52.2446ZM81.6365 60.699L73.1495 48.3309C69.0629 51.1351 63.9588 53.2942 58.1247 54.9771L62.2819 69.3895L66.4392 83.8019C74.1438 81.5795 82.5144 78.2885 90.1236 73.0671L81.6365 60.699ZM62.2819 69.3895L58.1127 54.9805C56.7215 55.383 54.4124 55.9228 50.9735 56.579L53.7849 71.3132L56.5964 86.0473C60.3948 85.3226 63.7503 84.5799 66.4511 83.7984L62.2819 69.3895ZM53.7849 71.3132L50.9252 56.5883C51.5002 56.4766 51.9406 56.4313 52.1145 56.4148C52.2782 56.3992 52.4056 56.3919 52.2717 56.4008L53.2626 71.368L54.2536 86.3352C54.304 86.3319 54.6136 86.3125 54.9528 86.2802C55.3023 86.247 55.9116 86.1804 56.6446 86.0381L53.7849 71.3132ZM53.2626 71.368L52.272 56.4007C52.2135 56.4046 51.7412 56.4331 51.2169 56.4924C50.6758 56.5535 49.7403 56.6813 48.629 56.9828L52.5573 71.4593L56.4856 85.9358C55.5919 86.1783 54.8891 86.2683 54.5862 86.3026C54.3002 86.3349 54.0717 86.3473 54.2533 86.3352L53.2626 71.368ZM52.5573 71.4593L48.6334 56.9816C49.7715 56.6732 50.6448 56.6125 51.0473 56.5971L51.6198 71.5862L52.1923 86.5752C53.3234 86.532 54.8217 86.3868 56.4813 85.937L52.5573 71.4593ZM51.6198 71.5862L51.0362 56.5975C49.55 56.6554 48.1809 56.9022 47.9909 56.9335L50.425 71.7346L52.8591 86.5358C52.9675 86.518 53.0146 86.5103 53.0528 86.5043C53.0857 86.4992 53.072 86.5016 53.0296 86.5073C52.9869 86.5131 52.8937 86.525 52.7631 86.5376C52.6331 86.5501 52.442 86.5655 52.2034 86.5748L51.6198 71.5862ZM50.425 71.7346L47.9909 56.9335C47.875 56.9525 47.8336 56.9592 47.804 56.9639C47.7796 56.9677 47.8206 56.961 47.9004 56.9507C47.9794 56.9405 48.1396 56.9212 48.3568 56.9041C48.571 56.8872 48.899 56.8678 49.3092 56.8688L49.272 71.8688L49.2347 86.8687C51.0776 86.8733 52.8431 86.5385 52.8591 86.5358L50.425 71.7346ZM49.272 71.8688L49.2407 56.8688C47.4976 56.8724 45.9591 57.1549 45.8267 57.1763L48.2273 71.983L50.6278 86.7897C50.675 86.782 50.7015 86.7777 50.7249 86.774C50.7464 86.7706 50.7526 86.7696 50.7498 86.7701C50.7465 86.7706 50.6806 86.7807 50.5768 86.7934C50.3786 86.8176 49.9189 86.8675 49.3033 86.8687L49.272 71.8688ZM48.2273 71.983L45.8269 57.1763C46.4169 57.0807 46.7419 57.0746 46.3491 57.1005C46.2745 57.1054 46.1995 57.1097 46.1419 57.1128C46.1145 57.1142 46.0946 57.1152 46.0848 57.1157C46.08 57.1159 46.0779 57.116 46.0789 57.116C46.0794 57.1159 46.0807 57.1159 46.0829 57.1158C46.084 57.1157 46.0852 57.1157 46.0867 57.1156C46.0875 57.1156 46.0883 57.1155 46.0892 57.1155C46.0896 57.1155 46.09 57.1154 46.0905 57.1154C46.0907 57.1154 46.0911 57.1154 46.0912 57.1154C46.0916 57.1154 46.0919 57.1154 46.7703 72.1C47.4487 87.0847 47.4491 87.0846 47.4495 87.0846C47.4496 87.0846 47.45 87.0846 47.4503 87.0846C47.4508 87.0846 47.4513 87.0845 47.4519 87.0845C47.453 87.0845 47.4542 87.0844 47.4554 87.0844C47.4579 87.0842 47.4606 87.0841 47.4637 87.084C47.4697 87.0837 47.4768 87.0834 47.4849 87.083C47.5011 87.0822 47.5213 87.0813 47.5453 87.0801C47.5929 87.0778 47.6561 87.0746 47.7313 87.0706C47.8785 87.0628 48.0859 87.0511 48.321 87.0356C48.5474 87.0207 49.6009 86.9562 50.6276 86.7897L48.2273 71.983ZM46.7703 72.1L31.7734 72.4015C31.8253 74.9845 31.7844 77.5094 31.6585 79.7928L46.6357 80.6186L61.613 81.4445C61.7841 78.341 61.8329 75.0605 61.7673 71.7985L46.7703 72.1ZM46.6357 80.6186L31.6581 79.7985C31.5833 81.1661 31.5359 82.4637 31.5286 83.6535L46.5283 83.7451L61.5281 83.8367C61.5315 83.2773 61.5557 82.4906 61.6133 81.4388L46.6357 80.6186ZM46.5283 83.7451L31.5288 83.6239C31.5256 84.0232 31.5312 85.2149 31.5414 86.9658L46.5412 86.878L61.5409 86.7901C61.5356 85.8814 61.5319 85.1744 61.5298 84.6652C61.5288 84.4102 61.5282 84.2114 61.5279 84.0651C61.5276 83.9001 61.528 83.8514 61.5278 83.8663L46.5283 83.7451ZM46.5412 86.878L31.5414 86.963C31.5413 86.9523 31.5416 87.0007 31.5404 87.1408C31.5393 87.2699 31.5373 87.4425 31.5341 87.6637C31.5279 88.1062 31.5177 88.7002 31.5034 89.4538C31.4748 90.9588 31.4305 93.0464 31.3703 95.7242L46.3665 96.0614L61.3627 96.3986C61.48 91.1814 61.5467 87.8196 61.5409 86.7929L46.5412 86.878ZM46.3665 96.0614L31.3702 95.725C31.2968 98.9991 31.2646 101.834 31.2786 104.2L46.2783 104.111L61.2781 104.023C61.2664 102.038 61.293 99.5061 61.3627 96.3978L46.3665 96.0614ZM46.2783 104.111L31.2786 104.194C31.2913 106.505 31.2574 108.781 31.1773 111.021L46.1677 111.557L61.1582 112.093C61.2533 109.43 61.2931 106.742 61.2781 104.028L46.2783 104.111ZM46.1677 111.557L31.1771 111.026C31.077 113.855 31.026 116.483 31.0283 118.9L46.0283 118.886L61.0283 118.871C61.0264 116.887 61.0684 114.629 61.1584 112.088L46.1677 111.557ZM46.0283 118.886L31.0283 118.906C31.0379 125.965 31.0288 131.494 31.0014 135.511L46.0011 135.613L61.0007 135.715C61.0289 131.579 61.0379 125.956 61.0283 118.865L46.0283 118.886ZM46.0011 135.613L31.0014 135.51C30.9491 143.113 30.9328 148.509 30.955 151.618L45.9546 151.51L60.9542 151.403C60.9337 148.53 60.9483 143.328 61.0007 135.716L46.0011 135.613ZM45.9546 151.51L30.9549 151.611C31.019 161.194 31.0486 168.482 31.0444 173.497L46.0443 173.51L61.0443 173.522C61.0487 168.393 61.0184 161.015 60.9543 151.41L45.9546 151.51ZM46.0443 173.51H31.0443C31.0443 174.654 31.146 175.675 31.1684 175.923L46.108 174.579L61.0477 173.235C61.0391 173.14 61.035 173.094 61.0318 173.055C61.0289 173.021 61.0292 173.021 61.0306 173.043C61.0333 173.083 61.0443 173.256 61.0443 173.51H46.0443ZM46.108 174.579L31.1684 175.923C31.1739 175.984 31.1774 176.024 31.1806 176.06C31.1836 176.094 31.1851 176.113 31.1858 176.122C31.1865 176.131 31.186 176.124 31.1849 176.108C31.1837 176.091 31.1818 176.06 31.1797 176.017L46.1613 175.276L61.143 174.534C61.1141 173.95 61.0641 173.417 61.0477 173.235L46.108 174.579ZM46.1613 175.276L31.1771 175.964C31.2487 177.522 31.2823 178.907 31.2831 180.13L46.2831 180.119L61.2831 180.108C61.2819 178.363 61.2343 176.52 61.1455 174.588L46.1613 175.276ZM46.2831 180.119H31.2831C31.2831 182.165 31.3186 184.041 31.4008 185.704L46.3825 184.962L61.3642 184.22C61.314 183.206 61.2831 181.854 61.2831 180.119H46.2831ZM46.3825 184.962L31.401 185.707C31.5076 187.849 31.5458 189.279 31.5428 190.126L46.5428 190.177L61.5427 190.229C61.5483 188.59 61.4797 186.543 61.364 184.217L46.3825 184.962ZM46.5428 190.177L31.5429 190.118C31.5371 191.583 31.6273 193.083 31.844 194.6L46.6934 192.48L61.5428 190.36C61.5522 190.426 61.542 190.391 61.5426 190.237L46.5428 190.177ZM46.6934 192.48L31.8467 194.619C31.8216 194.445 31.8087 194.313 31.8023 194.237C31.796 194.162 31.7947 194.124 31.7953 194.14C31.7961 194.156 31.7978 194.205 31.7998 194.306C31.8007 194.355 31.8016 194.412 31.8025 194.482C31.8035 194.553 31.8043 194.626 31.8053 194.717L46.8044 194.548L61.8034 194.379C61.7978 193.878 61.8017 192.157 61.5401 190.341L46.6934 192.48ZM46.8044 194.548L31.8053 194.717C31.8107 195.197 31.8146 196.501 31.9587 197.896L46.8793 196.355L61.7999 194.814C61.8161 194.97 61.8158 195.036 61.8128 194.948C61.8115 194.908 61.8098 194.846 61.8082 194.748C61.8065 194.646 61.8052 194.537 61.8034 194.379L46.8044 194.548ZM46.8793 196.355L31.9575 197.884C32.0329 198.621 32.0648 199.188 32.0727 199.604L47.07 199.321L62.0673 199.037C62.041 197.647 61.9458 196.237 61.8011 194.826L46.8793 196.355ZM47.07 199.321L32.0729 199.615C32.0979 200.886 32.2188 202.292 32.5163 203.768L47.2207 200.804L61.925 197.841C62.043 198.427 62.0635 198.843 62.0671 199.026L47.07 199.321ZM47.2207 200.804L32.5198 203.785C32.3731 203.062 32.3299 202.511 32.3155 202.293C32.3028 202.101 32.3016 201.962 32.3074 202.198L47.3029 201.83L62.2984 201.461C62.2969 201.402 62.297 199.676 61.9215 197.824L47.2207 200.804ZM47.3029 201.83L32.3074 202.198C32.3109 202.339 32.3213 203.662 32.5498 205.117L47.3681 202.789L62.1864 200.462C62.263 200.949 62.2874 201.313 62.2957 201.459C62.298 201.499 62.2994 201.531 62.3003 201.55C62.3007 201.561 62.301 201.568 62.3012 201.573C62.3013 201.576 62.3014 201.578 62.3014 201.579C62.3015 201.58 62.3015 201.581 62.3015 201.581C62.3015 201.581 62.3015 201.581 62.3014 201.579C62.3014 201.578 62.3013 201.576 62.3013 201.574C62.3011 201.569 62.3009 201.561 62.3006 201.551C62.3 201.529 62.2994 201.504 62.2984 201.461L47.3029 201.83ZM47.3681 202.789L32.5518 205.129C32.5688 205.237 32.5811 205.322 32.5897 205.384C32.5983 205.447 32.6021 205.48 32.6028 205.487C32.6037 205.494 32.5999 205.461 32.5948 205.394C32.5921 205.359 32.5889 205.311 32.5857 205.252C32.5826 205.193 32.5793 205.117 32.5769 205.028L47.5716 204.629L62.5663 204.231C62.5288 202.82 62.3436 201.457 62.1844 200.449L47.3681 202.789ZM47.5716 204.629L32.5762 205C32.6159 206.604 32.8545 208.042 33.1391 209.24L47.7335 205.776L62.3279 202.311C62.4138 202.673 62.5445 203.346 62.567 204.259L47.5716 204.629ZM47.7335 205.776L33.157 209.315C33.0547 208.894 32.9923 208.555 32.9605 208.373C32.9252 208.171 32.9008 208.005 32.8856 207.896C32.8559 207.684 32.8385 207.523 32.8313 207.454C32.8163 207.311 32.8108 207.231 32.8134 207.265C32.8173 207.317 32.8282 207.476 32.8461 207.788L47.8216 206.932L62.7972 206.076C62.7755 205.697 62.752 205.318 62.7266 204.984C62.7144 204.825 62.6954 204.591 62.6684 204.332C62.6551 204.204 62.6319 203.995 62.5968 203.744C62.576 203.595 62.4923 202.988 62.31 202.237L47.7335 205.776ZM47.8216 206.932L32.8507 207.866C32.94 209.297 33.2925 210.923 33.3376 211.147L48.0412 208.18L62.7447 205.212C62.6877 204.93 62.6625 204.793 62.6568 204.76C62.6537 204.743 62.6665 204.813 62.685 204.941C62.6946 205.007 62.7107 205.122 62.728 205.271C62.7437 205.406 62.7718 205.665 62.7925 205.998L47.8216 206.932ZM48.0412 208.18L33.3418 211.168C33.1838 210.39 33.0966 209.599 33.0821 208.803L48.0797 208.53L63.0772 208.257C63.0584 207.226 62.9455 206.2 62.7406 205.192L48.0412 208.18ZM48.0797 208.53L33.0833 208.861C33.1143 210.266 33.2871 211.881 33.7485 213.599L48.2351 209.709L62.7218 205.818C62.995 206.835 63.0642 207.665 63.076 208.199L48.0797 208.53ZM48.2351 209.709L33.6922 213.383C33.4567 212.451 33.3182 211.492 33.2822 210.52L48.272 209.965L63.2617 209.411C63.2194 208.266 63.0561 207.134 62.778 206.034L48.2351 209.709ZM48.272 209.965L33.2781 210.396C33.3188 211.813 33.4957 213.189 33.7841 214.512L48.4402 211.319L63.0964 208.126C63.1861 208.537 63.2507 209.011 63.2658 209.535L48.272 209.965ZM48.4402 211.319L33.7901 214.54C33.6992 214.127 33.6638 213.791 33.6998 214.075L48.5808 212.189L63.4618 210.304C63.4303 210.055 63.3242 209.162 63.0903 208.098L48.4402 211.319ZM48.5808 212.189L33.6998 214.075C33.7359 214.36 33.8964 215.825 34.4081 217.533L48.7768 213.227L63.1455 208.921C63.4335 209.882 63.5124 210.703 63.4618 210.304L48.5808 212.189ZM48.7768 213.227L34.3932 217.483C34.1119 216.532 34.0196 215.798 33.9851 215.443L48.9146 213.991L63.8441 212.539C63.752 211.591 63.5677 210.348 63.1603 208.971L48.7768 213.227ZM48.9146 213.991L33.9862 215.455C34.1325 216.947 34.4175 218.398 34.528 218.983L49.2677 216.201L64.0075 213.419C63.9331 213.025 63.8916 212.802 63.8595 212.61C63.8282 212.423 63.8323 212.418 63.843 212.528L48.9146 213.991ZM49.2677 216.201L34.528 218.983C34.5771 219.243 34.6089 219.412 34.6357 219.562C34.6618 219.708 34.6694 219.761 34.6686 219.755L49.514 217.607L64.3594 215.459C64.2415 214.645 64.0857 213.833 64.0075 213.419L49.2677 216.201ZM49.514 217.607L34.6755 219.803C34.7979 220.63 35.0483 221.93 35.3091 223.251L50.0252 220.347L64.7413 217.442C64.6054 216.754 64.5033 216.224 64.4313 215.838C64.3954 215.646 64.3706 215.509 64.3547 215.418C64.3361 215.311 64.3396 215.325 64.3524 215.412L49.514 217.607ZM50.0252 220.347L35.3091 223.251C36.5001 229.285 37.9597 235.281 39.7177 241.194L54.0958 236.92L68.4739 232.646C67.0011 227.691 65.762 222.613 64.7413 217.442L50.0252 220.347ZM54.0958 236.92L39.718 241.195C41.314 246.563 43.0621 251.727 44.9669 256.681L58.9677 251.298L72.9686 245.915C71.3626 241.738 69.8628 237.316 68.4737 232.645L54.0958 236.92ZM58.9677 251.298L44.958 256.658C45.0395 256.871 45.2253 257.344 45.4668 257.958L59.4245 252.464L73.3822 246.97C73.2558 246.649 73.1571 246.398 73.0851 246.214C73.0052 246.01 72.977 245.937 72.9775 245.938L58.9677 251.298ZM59.4245 252.464L45.4665 257.957C49.0659 267.103 53.2317 275.829 57.971 284.125L70.9953 276.684L84.0195 269.243C80.0215 262.245 76.4734 254.825 73.3824 246.971L59.4245 252.464ZM70.9953 276.684L57.9707 284.124C64.4947 295.545 71.9305 306.258 80.277 316.254L91.7906 306.64L103.304 297.025C96.1055 288.404 89.6778 279.148 84.0199 269.243L70.9953 276.684ZM91.7906 306.64L80.2783 316.255C82.403 318.799 84.3693 321.071 86.1673 323.048L97.2651 312.957L108.363 302.865C106.919 301.278 105.236 299.338 103.303 297.024L91.7906 306.64ZM97.2651 312.957L86.1796 323.062C86.6068 323.53 87.0147 323.942 87.1853 324.115L97.8759 313.594L108.567 303.072C108.456 302.96 108.405 302.908 108.362 302.863C108.325 302.824 108.327 302.825 108.351 302.852L97.2651 312.957ZM97.8759 313.594L87.187 324.117C87.24 324.171 87.2772 324.209 87.3118 324.244C87.345 324.278 87.3664 324.3 87.3808 324.315C87.4113 324.347 87.3938 324.329 87.3497 324.281L98.4687 314.212L109.588 304.144C109.153 303.664 108.73 303.237 108.565 303.07L97.8759 313.594ZM98.4687 314.212L87.3485 324.279C88.9977 326.101 90.4536 327.693 91.2685 328.493L101.776 317.788L112.284 307.084C112.37 307.168 112.366 307.168 112.212 307.006C112.081 306.867 111.895 306.669 111.645 306.398C111.145 305.858 110.464 305.112 109.589 304.146L98.4687 314.212ZM101.776 317.788L91.2683 328.493C93.1401 330.33 94.2036 331.394 94.6249 331.833L105.451 321.451L116.278 311.069C115.492 310.249 114.105 308.872 112.285 307.084L101.776 317.788ZM105.451 321.451L94.6351 331.844C96.1795 333.451 98.1999 335.377 100.567 337.543L110.693 326.477L120.82 315.411C118.629 313.407 117.155 311.982 116.267 311.058L105.451 321.451ZM110.693 326.477L100.562 337.539C100.785 337.743 101.091 338.025 101.486 338.39L111.673 327.38L121.859 316.369C121.447 315.988 121.1 315.668 120.825 315.416L110.693 326.477ZM111.673 327.38L101.46 338.367C107.252 343.75 113.581 348.995 120.427 354.108L129.402 342.089L138.377 330.07C132.306 325.537 126.815 320.976 121.885 316.393L111.673 327.38ZM129.402 342.089L120.423 354.104C121.854 355.173 123.237 356.181 124.572 357.124L133.228 344.873L141.883 332.622C140.79 331.85 139.624 331.001 138.381 330.073L129.402 342.089ZM133.228 344.873L124.575 357.126C131.664 362.132 139.475 367.111 148.283 371.473L154.94 358.031L161.596 344.589C154.599 341.124 148.153 337.05 141.88 332.62L133.228 344.873ZM154.94 358.031L161.598 371.472C170.406 367.108 178.214 362.129 185.303 357.122L176.648 344.87L167.994 332.618C161.72 337.05 155.278 341.123 148.281 344.59L154.94 358.031ZM176.648 344.87L185.304 357.121C186.639 356.178 188.022 355.17 189.453 354.101L180.474 342.085L171.495 330.07C170.252 330.998 169.086 331.847 167.993 332.619L176.648 344.87ZM180.474 342.085L189.451 354.103C196.296 348.99 202.623 343.745 208.414 338.362L198.202 327.375L187.99 316.388C183.058 320.972 177.567 325.534 171.497 330.068L180.474 342.085ZM198.202 327.375L208.404 338.371C208.797 338.007 209.097 337.729 209.313 337.532L199.181 326.471L189.049 315.41C188.767 315.668 188.415 315.994 188 316.379L198.202 327.375ZM199.181 326.471L209.31 337.535C211.676 335.369 213.694 333.444 215.238 331.838L204.422 321.445L193.605 311.052C192.717 311.977 191.242 313.402 189.052 315.407L199.181 326.471ZM204.422 321.445L215.248 331.827C215.669 331.388 216.732 330.324 218.604 328.486L208.096 317.782L197.588 307.078C195.768 308.865 194.381 310.243 193.595 311.063L204.422 321.445ZM208.096 317.782L218.604 328.486C219.421 327.685 220.879 326.09 222.527 324.268L211.404 314.204L200.281 304.141C199.406 305.108 198.725 305.854 198.226 306.394C197.976 306.664 197.79 306.863 197.659 307.001C197.505 307.163 197.502 307.163 197.588 307.078L208.096 317.782ZM211.404 314.204L222.523 324.273C222.479 324.321 222.461 324.339 222.492 324.307C222.506 324.292 222.528 324.27 222.561 324.236C222.596 324.2 222.633 324.162 222.686 324.109L211.997 313.585L201.307 303.062C201.143 303.229 200.72 303.656 200.285 304.136L211.404 314.204ZM211.997 313.585L222.686 324.109C222.86 323.932 223.266 323.522 223.693 323.054L212.608 312.949L201.522 302.843C201.545 302.818 201.547 302.817 201.51 302.855C201.467 302.9 201.416 302.952 201.308 303.062L211.997 313.585ZM212.608 312.949L223.709 323.036C225.504 321.061 227.469 318.79 229.593 316.247L218.081 306.632L206.568 297.016C204.634 299.331 202.95 301.272 201.506 302.861L212.608 312.949ZM218.081 306.632L229.595 316.244C237.941 306.248 245.375 295.533 251.898 284.111L238.873 276.673L225.847 269.234C220.19 279.139 213.763 288.397 206.566 297.019L218.081 306.632ZM238.873 276.673L251.898 284.112C256.636 275.816 260.801 267.089 264.399 257.942L250.44 252.451L236.481 246.96C233.392 254.815 229.844 262.235 225.848 269.233L238.873 276.673ZM250.44 252.451L264.398 257.945C264.639 257.332 264.825 256.858 264.907 256.644L250.897 251.285L236.887 245.926C236.888 245.924 236.86 245.997 236.78 246.201C236.708 246.385 236.609 246.636 236.483 246.957L250.44 252.451ZM250.897 251.285L264.899 256.665C266.803 251.711 268.55 246.547 270.144 241.179L255.766 236.907L241.387 232.635C239.999 237.306 238.5 241.728 236.895 245.905L250.897 251.285ZM255.766 236.907L270.144 241.181C271.902 235.268 273.362 229.271 274.552 223.234L259.835 220.334L245.118 217.433C244.099 222.602 242.86 227.679 241.388 232.633L255.766 236.907ZM259.835 220.334L274.551 223.238C274.812 221.917 275.062 220.617 275.184 219.79L260.346 217.594L245.507 215.399C245.52 215.312 245.524 215.299 245.505 215.405C245.489 215.496 245.465 215.633 245.429 215.825C245.357 216.211 245.255 216.741 245.119 217.429L259.835 220.334ZM260.346 217.594L275.191 219.743C275.191 219.748 275.198 219.695 275.224 219.549C275.251 219.398 275.283 219.229 275.332 218.968L260.592 216.188L245.852 213.408C245.774 213.822 245.618 214.633 245.501 215.446L260.346 217.594Z" fill="#FFBE1A" mask="url(#path-1-outside-1_2754_76)"/>
<path d="M155 341.838L136.575 237.147C142.322 239.248 148.527 240.395 155 240.395C161.472 240.395 167.676 239.248 173.423 237.147L155 341.838Z" fill="#FFBE1A"/>
<path d="M110.044 216.074C114.088 222.24 119.36 227.523 125.513 231.575L73.9162 267.775L110.044 216.074Z" fill="#FFBE1A"/>
<path d="M236.084 267.775L184.486 231.575C190.639 227.523 195.911 222.24 199.955 216.075L236.084 267.775Z" fill="#FFBE1A"/>
<path d="M155 141.645C155.22 141.645 155.439 141.646 155.658 141.649C155.714 141.65 155.77 141.651 155.826 141.653C155.959 141.655 156.092 141.658 156.225 141.661C156.357 141.665 156.488 141.669 156.62 141.674C156.686 141.676 156.753 141.679 156.82 141.681C156.951 141.687 157.083 141.693 157.214 141.699C157.321 141.704 157.428 141.71 157.535 141.716C157.616 141.72 157.696 141.725 157.777 141.73C158.205 141.756 158.63 141.788 159.055 141.826C159.067 141.827 159.078 141.829 159.09 141.83C159.292 141.848 159.493 141.867 159.693 141.888C159.736 141.893 159.78 141.898 159.823 141.902C160 141.921 160.178 141.941 160.355 141.962C160.38 141.965 160.405 141.969 160.431 141.972C160.607 141.993 160.783 142.016 160.959 142.039C161.019 142.047 161.078 142.055 161.138 142.063C161.76 142.148 162.379 142.247 162.993 142.357C163.027 142.364 163.062 142.37 163.096 142.377C163.284 142.411 163.472 142.446 163.659 142.483C163.669 142.485 163.679 142.487 163.688 142.489C163.874 142.525 164.059 142.563 164.244 142.602C164.296 142.613 164.347 142.623 164.399 142.634C164.554 142.668 164.709 142.702 164.863 142.737C164.907 142.747 164.951 142.756 164.995 142.766C167.271 143.286 169.482 143.981 171.612 144.834C171.836 144.924 172.058 145.015 172.28 145.108C172.402 145.159 172.523 145.211 172.644 145.263C172.836 145.345 173.026 145.429 173.217 145.513C173.327 145.563 173.437 145.612 173.546 145.662C173.791 145.773 174.033 145.887 174.275 146.003C174.368 146.047 174.461 146.092 174.553 146.137C174.795 146.254 175.035 146.374 175.274 146.495C176.105 146.919 176.92 147.368 177.72 147.841C177.787 147.881 177.854 147.92 177.921 147.96C178.11 148.073 178.298 148.187 178.485 148.302C178.56 148.349 178.635 148.396 178.71 148.443C178.947 148.592 179.183 148.743 179.417 148.896C179.584 149.005 179.752 149.113 179.917 149.224C180.082 149.335 180.245 149.448 180.408 149.561C180.483 149.613 180.558 149.665 180.634 149.718C180.804 149.837 180.974 149.957 181.143 150.079C181.237 150.147 181.331 150.216 181.425 150.285C181.657 150.455 181.887 150.627 182.116 150.802C182.252 150.906 182.389 151.01 182.524 151.115C182.664 151.225 182.802 151.336 182.941 151.447C183.043 151.528 183.144 151.611 183.245 151.693C183.386 151.808 183.526 151.922 183.665 152.039C183.741 152.102 183.817 152.166 183.893 152.231C184.208 152.498 184.519 152.769 184.827 153.044C184.871 153.083 184.916 153.122 184.959 153.162C185.108 153.295 185.255 153.431 185.401 153.567C185.479 153.639 185.556 153.711 185.633 153.783C185.784 153.925 185.935 154.068 186.085 154.212C186.125 154.251 186.164 154.29 186.204 154.329C186.487 154.605 186.767 154.884 187.043 155.167C187.121 155.247 187.2 155.327 187.278 155.409C187.413 155.549 187.547 155.692 187.68 155.835C187.749 155.908 187.818 155.982 187.886 156.056C188.027 156.209 188.169 156.362 188.308 156.517C188.341 156.554 188.375 156.592 188.408 156.63C188.693 156.949 188.973 157.274 189.249 157.601C189.302 157.663 189.354 157.725 189.406 157.788C189.536 157.944 189.665 158.101 189.793 158.259C189.852 158.332 189.912 158.406 189.971 158.481C190.387 159.001 190.792 159.531 191.186 160.07C191.251 160.16 191.317 160.249 191.382 160.34C191.501 160.505 191.618 160.671 191.734 160.838C191.785 160.911 191.836 160.985 191.886 161.058C192.283 161.634 192.667 162.219 193.037 162.814C193.074 162.873 193.111 162.931 193.147 162.99C193.266 163.184 193.383 163.379 193.5 163.574C193.532 163.629 193.565 163.683 193.597 163.738C194.072 164.544 194.524 165.365 194.95 166.202C195.073 166.446 195.193 166.69 195.313 166.936C195.358 167.03 195.403 167.124 195.448 167.218C195.562 167.458 195.675 167.698 195.785 167.94C195.837 168.055 195.888 168.171 195.939 168.286C196.031 168.492 196.121 168.699 196.209 168.906C196.238 168.973 196.268 169.04 196.296 169.107C196.402 169.359 196.504 169.612 196.606 169.866C197.534 172.189 198.275 174.607 198.807 177.103C198.82 177.165 198.833 177.226 198.846 177.288C198.908 177.587 198.968 177.887 199.024 178.188C199.046 178.304 199.067 178.419 199.088 178.535C199.197 179.142 199.293 179.753 199.378 180.368C199.387 180.436 199.396 180.503 199.405 180.571C199.454 180.939 199.498 181.309 199.538 181.679C199.543 181.731 199.549 181.783 199.554 181.835C199.62 182.469 199.673 183.106 199.712 183.747C199.717 183.828 199.721 183.909 199.726 183.99C199.732 184.097 199.737 184.205 199.743 184.312C199.749 184.443 199.755 184.575 199.76 184.707C199.763 184.773 199.766 184.84 199.768 184.907C199.773 185.039 199.777 185.171 199.78 185.303C199.791 185.711 199.798 186.12 199.798 186.531C199.798 186.936 199.792 187.341 199.781 187.743C199.777 187.88 199.773 188.017 199.768 188.154C199.766 188.221 199.763 188.288 199.76 188.354C199.755 188.486 199.749 188.618 199.743 188.749C199.737 188.856 199.732 188.964 199.726 189.071C199.721 189.152 199.717 189.233 199.712 189.314C199.646 190.387 199.543 191.45 199.403 192.502C199.395 192.562 199.388 192.621 199.379 192.681C198.876 196.361 197.926 199.899 196.588 203.239C196.513 203.427 196.436 203.615 196.358 203.802C196.293 203.959 196.226 204.115 196.159 204.272C196.098 204.414 196.036 204.556 195.973 204.698C195.875 204.92 195.775 205.14 195.673 205.36C195.608 205.501 195.544 205.642 195.477 205.782C195.414 205.915 195.35 206.048 195.286 206.18C195.21 206.336 195.133 206.49 195.055 206.645C194.596 207.562 194.105 208.461 193.585 209.342C193.559 209.386 193.534 209.431 193.508 209.475C193.387 209.678 193.264 209.88 193.14 210.081C193.108 210.133 193.076 210.184 193.044 210.236C192.665 210.845 192.271 211.444 191.864 212.034C191.827 212.089 191.789 212.144 191.751 212.199C191.625 212.379 191.499 212.559 191.37 212.738C191.323 212.803 191.275 212.868 191.227 212.933C190.827 213.484 190.414 214.025 189.989 214.557C189.921 214.642 189.853 214.727 189.785 214.812C189.653 214.974 189.521 215.136 189.387 215.297C189.381 215.303 189.377 215.31 189.372 215.316C189.056 215.694 188.733 216.066 188.405 216.434C188.371 216.471 188.339 216.51 188.305 216.547C188.168 216.7 188.029 216.85 187.89 217.001C187.823 217.074 187.755 217.147 187.687 217.22C187.543 217.374 187.398 217.527 187.253 217.679C187.222 217.71 187.191 217.741 187.161 217.773C186.839 218.105 186.512 218.433 186.18 218.755C186.148 218.786 186.118 218.817 186.086 218.847C185.935 218.994 185.782 219.138 185.629 219.282C185.556 219.351 185.483 219.419 185.41 219.487C185.26 219.626 185.109 219.765 184.957 219.902C184.924 219.932 184.891 219.961 184.858 219.991C184.506 220.306 184.149 220.616 183.787 220.92C183.761 220.942 183.735 220.964 183.709 220.986C183.549 221.12 183.387 221.253 183.225 221.385C183.143 221.452 183.06 221.519 182.978 221.585C182.445 222.013 181.902 222.427 181.35 222.83C181.285 222.878 181.22 222.926 181.155 222.973C180.977 223.102 180.797 223.228 180.617 223.354C180.562 223.393 180.507 223.43 180.452 223.468C179.864 223.876 179.266 224.27 178.658 224.65C178.607 224.682 178.555 224.715 178.504 224.747C178.311 224.866 178.116 224.985 177.921 225.102C177.87 225.133 177.817 225.162 177.765 225.193C176.887 225.713 175.99 226.205 175.074 226.666C174.92 226.743 174.766 226.82 174.61 226.896C174.478 226.961 174.346 227.025 174.213 227.088C174.073 227.155 173.933 227.22 173.792 227.285C173.573 227.386 173.352 227.487 173.131 227.585C172.989 227.648 172.848 227.71 172.706 227.771C172.55 227.839 172.393 227.906 172.237 227.971C172.05 228.049 171.863 228.126 171.675 228.202C169.119 229.229 166.448 230.029 163.685 230.573C163.676 230.575 163.668 230.577 163.659 230.578C163.472 230.615 163.284 230.65 163.096 230.684C163.062 230.691 163.027 230.698 162.993 230.704C162.379 230.815 161.76 230.913 161.138 230.998C161.078 231.006 161.019 231.014 160.959 231.022C160.783 231.045 160.607 231.068 160.431 231.089C160.405 231.093 160.38 231.096 160.355 231.099C160.178 231.12 160 231.14 159.823 231.159C159.78 231.163 159.736 231.168 159.693 231.173C159.493 231.194 159.292 231.213 159.09 231.232C159.078 231.233 159.067 231.234 159.055 231.235C158.63 231.273 158.205 231.305 157.777 231.331C157.696 231.336 157.616 231.341 157.535 231.345C157.428 231.351 157.321 231.357 157.214 231.362C157.083 231.369 156.951 231.374 156.82 231.38C156.753 231.382 156.686 231.385 156.62 231.388C156.488 231.392 156.357 231.396 156.225 231.4C156.092 231.403 155.959 231.406 155.826 231.409C155.77 231.41 155.714 231.411 155.658 231.412C155.439 231.415 155.22 231.417 155 231.417C154.78 231.417 154.56 231.415 154.341 231.412C154.285 231.411 154.229 231.41 154.173 231.409C154.04 231.406 153.907 231.403 153.774 231.4C153.643 231.396 153.511 231.392 153.38 231.388C153.313 231.385 153.246 231.382 153.179 231.38C153.048 231.374 152.917 231.369 152.785 231.362C152.678 231.357 152.571 231.351 152.464 231.345C152.383 231.341 152.302 231.336 152.221 231.331C151.796 231.305 151.373 231.274 150.951 231.236C150.926 231.234 150.902 231.231 150.877 231.229C150.689 231.212 150.501 231.193 150.314 231.174C150.262 231.168 150.21 231.163 150.158 231.157C149.987 231.139 149.816 231.119 149.645 231.099C149.619 231.096 149.593 231.093 149.567 231.089C149.395 231.069 149.224 231.047 149.052 231.024C148.984 231.015 148.917 231.006 148.849 230.997C148.235 230.912 147.625 230.815 147.02 230.706C146.968 230.697 146.916 230.687 146.865 230.677C146.695 230.646 146.527 230.615 146.358 230.582C146.332 230.577 146.305 230.571 146.278 230.566C146.11 230.533 145.943 230.499 145.775 230.464C145.714 230.451 145.652 230.438 145.591 230.425C143.1 229.891 140.687 229.149 138.368 228.219C138.114 228.118 137.861 228.015 137.61 227.909C137.543 227.881 137.477 227.851 137.41 227.822C137.203 227.733 136.997 227.643 136.791 227.551C136.676 227.5 136.56 227.449 136.446 227.397C136.204 227.287 135.965 227.174 135.726 227.059C135.632 227.014 135.538 226.969 135.444 226.923C135.199 226.804 134.954 226.683 134.712 226.56C133.876 226.134 133.056 225.68 132.252 225.204C132.194 225.17 132.136 225.136 132.079 225.102C131.887 224.987 131.696 224.871 131.506 224.754C131.447 224.717 131.389 224.68 131.33 224.643C130.736 224.272 130.152 223.888 129.577 223.49C129.504 223.44 129.431 223.389 129.358 223.338C129.191 223.221 129.025 223.104 128.861 222.985C128.77 222.92 128.681 222.854 128.591 222.788C128.053 222.394 127.524 221.988 127.005 221.571C126.931 221.512 126.857 221.452 126.784 221.392C126.626 221.264 126.469 221.135 126.314 221.005C126.251 220.953 126.189 220.9 126.127 220.848C125.795 220.567 125.466 220.281 125.142 219.991C125.11 219.962 125.077 219.934 125.045 219.905C124.89 219.765 124.738 219.624 124.585 219.482C124.511 219.414 124.438 219.345 124.364 219.276C124.222 219.142 124.08 219.008 123.939 218.873C123.858 218.795 123.778 218.716 123.698 218.637C123.411 218.357 123.129 218.073 122.85 217.785C122.815 217.749 122.78 217.713 122.745 217.677C122.599 217.526 122.456 217.373 122.313 217.22C122.242 217.145 122.171 217.069 122.101 216.992C121.965 216.845 121.83 216.698 121.697 216.55C121.657 216.506 121.619 216.461 121.579 216.417C121.304 216.109 121.034 215.797 120.767 215.481C120.703 215.405 120.639 215.329 120.576 215.253C120.46 215.114 120.345 214.973 120.231 214.832C120.149 214.731 120.067 214.629 119.985 214.527C119.875 214.388 119.763 214.25 119.654 214.11C119.549 213.974 119.445 213.837 119.341 213.7C119.167 213.471 118.996 213.24 118.826 213.008C118.757 212.914 118.688 212.82 118.62 212.726C118.499 212.556 118.379 212.386 118.26 212.215C118.207 212.14 118.155 212.065 118.103 211.989C117.991 211.826 117.878 211.662 117.767 211.497C117.656 211.332 117.548 211.164 117.439 210.997C117.288 210.764 117.139 210.53 116.992 210.294C116.944 210.217 116.895 210.14 116.847 210.062C116.731 209.875 116.618 209.687 116.505 209.498C116.466 209.431 116.426 209.363 116.386 209.296C115.915 208.494 115.466 207.678 115.043 206.846C114.922 206.606 114.803 206.365 114.686 206.123C114.641 206.03 114.596 205.937 114.552 205.844C114.436 205.602 114.323 205.359 114.211 205.114C114.161 205.004 114.113 204.894 114.063 204.784C113.979 204.593 113.895 204.402 113.813 204.21C113.761 204.089 113.71 203.967 113.659 203.846C113.566 203.623 113.475 203.4 113.385 203.176C112.46 200.856 111.721 198.441 111.19 195.948C111.179 195.897 111.169 195.845 111.158 195.793C110.943 194.768 110.763 193.73 110.62 192.681C110.612 192.621 110.604 192.562 110.596 192.502C110.456 191.45 110.353 190.387 110.287 189.314C110.282 189.233 110.278 189.152 110.273 189.071C110.267 188.964 110.262 188.856 110.257 188.749C110.25 188.618 110.244 188.486 110.239 188.354C110.236 188.288 110.234 188.221 110.231 188.154C110.226 188.017 110.223 187.88 110.219 187.743C110.208 187.341 110.202 186.936 110.202 186.531C110.202 186.12 110.208 185.711 110.219 185.303C110.222 185.171 110.227 185.039 110.231 184.907C110.234 184.84 110.236 184.773 110.239 184.707C110.244 184.575 110.25 184.443 110.257 184.312C110.262 184.205 110.267 184.097 110.273 183.99C110.278 183.909 110.282 183.828 110.287 183.747C110.326 183.106 110.379 182.469 110.445 181.835C110.452 181.768 110.458 181.702 110.466 181.635C110.479 181.513 110.493 181.391 110.507 181.269C110.518 181.175 110.529 181.081 110.541 180.987C110.557 180.856 110.574 180.725 110.591 180.594C110.601 180.513 110.612 180.433 110.623 180.352C110.637 180.251 110.652 180.15 110.667 180.049C110.682 179.943 110.697 179.836 110.713 179.731C110.774 179.33 110.84 178.932 110.911 178.535C110.932 178.419 110.954 178.304 110.976 178.188C111.032 177.887 111.091 177.587 111.153 177.288C111.167 177.221 111.182 177.154 111.196 177.086C111.225 176.954 111.253 176.822 111.283 176.69C111.297 176.626 111.311 176.562 111.326 176.498C111.557 175.484 111.822 174.482 112.12 173.496C112.142 173.423 112.164 173.351 112.187 173.279C112.424 172.508 112.682 171.746 112.959 170.993C112.982 170.932 113.005 170.87 113.028 170.808C113.138 170.513 113.252 170.219 113.368 169.927C113.599 169.345 113.843 168.769 114.098 168.199C114.129 168.128 114.161 168.057 114.193 167.986C114.319 167.708 114.448 167.431 114.58 167.156C114.606 167.102 114.631 167.047 114.658 166.993C114.786 166.728 114.916 166.465 115.05 166.202L115.05 166.201C115.25 165.808 115.456 165.418 115.666 165.032C115.803 164.781 115.942 164.532 116.083 164.284C116.158 164.153 116.235 164.023 116.311 163.892C116.389 163.759 116.467 163.626 116.547 163.493C116.634 163.347 116.722 163.202 116.811 163.057C116.912 162.892 117.014 162.729 117.117 162.566C117.175 162.475 117.23 162.383 117.289 162.292C117.449 162.043 117.612 161.795 117.777 161.549C117.862 161.421 117.95 161.295 118.037 161.168C118.129 161.033 118.222 160.898 118.317 160.763C118.403 160.639 118.49 160.516 118.578 160.393C118.693 160.232 118.81 160.073 118.927 159.914C119.025 159.781 119.124 159.648 119.223 159.516C119.371 159.319 119.521 159.123 119.672 158.928C119.753 158.824 119.836 158.72 119.919 158.616C120.041 158.462 120.165 158.308 120.29 158.155C120.376 158.049 120.463 157.944 120.55 157.839C120.655 157.713 120.76 157.588 120.866 157.464C121.028 157.273 121.192 157.083 121.357 156.895C121.486 156.748 121.614 156.602 121.745 156.457C121.843 156.348 121.942 156.241 122.041 156.133C122.151 156.014 122.261 155.895 122.371 155.778C122.477 155.665 122.583 155.553 122.69 155.441C123.108 155.004 123.536 154.576 123.971 154.157C124.083 154.05 124.195 153.944 124.307 153.838C124.425 153.727 124.543 153.617 124.662 153.507C124.769 153.408 124.877 153.308 124.986 153.21C125.13 153.079 125.276 152.95 125.422 152.821C125.61 152.656 125.799 152.492 125.99 152.33C126.119 152.219 126.249 152.11 126.379 152.001C126.479 151.918 126.58 151.834 126.68 151.752C126.833 151.627 126.986 151.503 127.141 151.38C127.244 151.298 127.348 151.215 127.452 151.133C127.683 150.952 127.916 150.774 128.151 150.597C128.245 150.527 128.341 150.457 128.435 150.387C128.594 150.27 128.753 150.152 128.913 150.037C129.036 149.949 129.16 149.862 129.283 149.775C129.417 149.681 129.552 149.587 129.688 149.494C129.814 149.408 129.94 149.32 130.067 149.234C130.313 149.069 130.56 148.905 130.809 148.745C130.9 148.687 130.991 148.631 131.082 148.573C131.245 148.47 131.408 148.367 131.572 148.266C131.717 148.177 131.862 148.089 132.008 148.001C132.14 147.922 132.273 147.844 132.406 147.766C132.536 147.689 132.666 147.612 132.797 147.537C133.044 147.395 133.293 147.257 133.543 147.12C133.929 146.908 134.318 146.702 134.711 146.502L134.712 146.501C134.973 146.368 135.236 146.237 135.501 146.109C135.555 146.082 135.609 146.057 135.663 146.031C135.938 145.899 136.214 145.77 136.492 145.643C136.563 145.611 136.634 145.579 136.705 145.548C137.273 145.292 137.848 145.048 138.428 144.816C138.72 144.7 139.014 144.586 139.309 144.475C139.37 144.452 139.432 144.43 139.493 144.407C140.244 144.129 141.005 143.871 141.774 143.633C141.846 143.611 141.918 143.588 141.99 143.566C142.556 143.395 143.127 143.234 143.702 143.084C143.73 143.077 143.758 143.069 143.786 143.062C144.184 142.959 144.585 142.862 144.987 142.77C145.051 142.756 145.115 142.742 145.179 142.727C145.31 142.698 145.442 142.669 145.574 142.641C145.641 142.626 145.708 142.612 145.775 142.598C145.943 142.562 146.11 142.528 146.278 142.495C146.305 142.49 146.332 142.484 146.358 142.479C146.527 142.446 146.695 142.415 146.865 142.384C146.916 142.374 146.968 142.364 147.02 142.355C147.416 142.283 147.813 142.217 148.213 142.157C148.319 142.14 148.425 142.125 148.531 142.11C148.631 142.096 148.732 142.08 148.833 142.066C148.914 142.055 148.994 142.045 149.075 142.034C149.205 142.017 149.336 142 149.467 141.984C149.561 141.972 149.654 141.961 149.749 141.95C149.87 141.935 149.992 141.922 150.113 141.908C150.18 141.901 150.247 141.894 150.314 141.887C150.501 141.868 150.689 141.849 150.877 141.832C150.902 141.83 150.926 141.827 150.951 141.825C151.373 141.787 151.796 141.756 152.221 141.73C152.302 141.725 152.383 141.72 152.464 141.716C152.571 141.71 152.678 141.704 152.785 141.699C152.917 141.693 153.048 141.687 153.179 141.681C153.246 141.679 153.313 141.676 153.38 141.674C153.511 141.669 153.643 141.665 153.774 141.661C153.907 141.658 154.04 141.655 154.173 141.653C154.229 141.651 154.285 141.65 154.341 141.649C154.56 141.646 154.78 141.645 155 141.645Z" fill="#FFBE1A"/>
<path d="M104.483 168.069C102.386 173.827 101.243 180.045 101.243 186.531C101.243 193.016 102.386 199.233 104.483 204.991L0 186.531L104.483 168.069Z" fill="#FFBE1A"/>
<path d="M310 186.531L205.516 204.991C207.613 199.233 208.757 193.016 208.757 186.531C208.757 180.046 207.613 173.828 205.516 168.07L310 186.531Z" fill="#FFBE1A"/>
<path d="M125.513 141.486C119.361 145.538 114.088 150.821 110.044 156.986L73.9162 105.287L125.513 141.486Z" fill="#FFBE1A"/>
<path d="M199.955 156.986C195.911 150.821 190.638 145.538 184.485 141.486L236.084 105.287L199.955 156.986Z" fill="#FFBE1A"/>
<path d="M173.424 135.914C167.677 133.813 161.472 132.667 155 132.667C148.527 132.667 142.321 133.813 136.574 135.914L155 31.2241L173.424 135.914Z" fill="#FFBE1A"/>
</svg>
