<svg width="475" height="500" viewBox="0 0 475 500" fill="none" xmlns="http://www.w3.org/2000/svg">
<path d="M237.5 500L86.8955 471.407L100.981 237.225L0 178.952C17.1191 102.305 78.9861 37.7256 78.9861 37.7256L174.333 0C174.333 0 204.676 15.4468 237.5 15.4468C270.324 15.4468 300.667 0 300.667 0L396.014 37.7256C396.014 37.7256 457.881 102.196 475 178.952L374.019 237.225L388.104 471.407L237.5 500Z" fill="#131516"/>
<path d="M237.496 481.624C237.496 481.624 371.307 459.445 371.632 459.119L360.147 217.001L362.097 198.954C364.372 202.868 374.015 220.045 374.124 220.154L455.818 171.339C430.465 87.9516 385.608 50.0085 385.608 50.0085L304.13 13.6963C304.13 13.6963 274.012 29.5802 237.388 29.5802C200.763 29.5802 170.645 13.6963 170.645 13.6963L89.1669 50.0085C89.1669 50.0085 44.3106 87.8428 18.957 171.339L100.652 220.154C100.652 220.154 110.403 202.868 112.679 198.954L114.629 217.001L103.144 459.119L237.279 481.624H237.496Z" fill="#1E1E1E"/>
<path d="M258 478.221C245.693 480.265 237.517 481.621 237.496 481.624H237.279L218 478.389V28.166C224.145 29.0419 230.656 29.5801 237.388 29.5801C244.568 29.5801 251.498 28.967 258 27.9854V478.221Z" fill="#FFB20A"/>
<path d="M171.145 13.9502C172.119 14.4398 174.49 15.5928 178 17.0654V471.678L138 464.967V28.2451L170.076 13.9502H171.145Z" fill="#FFB20A"/>
<path d="M338 28.79V464.879C325.854 466.918 311.741 469.276 298 471.565V16.5459C300.839 15.3237 302.775 14.3805 303.631 13.9502H304.7L338 28.79Z" fill="#FFB20A"/>
<path d="M100.869 220.157C100.869 220.157 106.828 211.568 112.896 198.957L94.043 79.6919L100.869 220.157Z" fill="black" fill-opacity="0.2"/>
<path d="M237.48 481.627C237.48 481.627 371.291 459.448 371.616 459.122L360.131 217.004L362.081 198.957L380.934 79.6919L268.251 395.413L237.48 481.627Z" fill="black" fill-opacity="0.2"/>
<rect x="138" y="131" width="200" height="178" fill="#FFB20A"/>
<path d="M104.342 213.622C102.27 217.286 100.651 220.154 100.651 220.154L18.957 171.339C19.7367 168.771 20.5339 166.246 21.3486 163.765L104.342 213.622Z" fill="#FFB20A"/>
<path d="M453.324 163.469C454.174 166.046 455.006 168.669 455.817 171.339L374.123 220.154C374.079 220.11 372.469 217.261 370.418 213.629L453.324 163.469Z" fill="#FFB20A"/>
<path d="M313.771 17.9922C313.467 18.1399 313.049 18.3417 312.524 18.5879C311.376 19.1266 309.716 19.8853 307.618 20.79C303.425 22.5979 297.461 24.999 290.316 27.3994C276.121 32.1687 256.847 37.0801 237.388 37.0801C217.921 37.0801 198.822 32.1657 184.793 27.3896C177.734 24.9864 171.856 22.5823 167.727 20.7715C165.66 19.8652 164.026 19.1056 162.896 18.5654C162.33 18.2953 161.89 18.0801 161.585 17.9287C161.508 17.8903 161.439 17.8554 161.379 17.8252L170.646 13.6963C170.769 13.7614 200.838 29.5801 237.388 29.5801C274.012 29.5801 304.131 13.6963 304.131 13.6963L313.771 17.9922Z" fill="#FFB20A"/>
</svg>
