<svg width="475" height="500" viewBox="0 0 475 500" fill="none" xmlns="http://www.w3.org/2000/svg">
<path d="M237.5 500L86.8955 471.407L100.981 237.225L0 178.952C17.1191 102.305 78.9861 37.7256 78.9861 37.7256L174.333 0C174.333 0 204.676 15.4468 237.5 15.4468C270.324 15.4468 300.667 0 300.667 0L396.014 37.7256C396.014 37.7256 457.881 102.196 475 178.952L374.019 237.225L388.104 471.407L237.5 500Z" fill="#131516"/>
<path d="M237.496 481.624C237.496 481.624 371.307 459.445 371.632 459.119L360.147 217.001L362.097 198.954C364.372 202.868 374.015 220.045 374.124 220.154L455.818 171.339C430.465 87.9516 385.608 50.0085 385.608 50.0085L304.13 13.6963C304.13 13.6963 274.012 29.5802 237.388 29.5802C200.763 29.5802 170.645 13.6963 170.645 13.6963L89.1669 50.0085C89.1669 50.0085 44.3106 87.8428 18.957 171.339L100.652 220.154C100.652 220.154 110.403 202.868 112.679 198.954L114.629 217.001L103.144 459.119L237.279 481.624H237.496Z" fill="#51218B"/>
<path d="M366.664 169.95L362.099 198.954L360.148 217.001L362.66 269.95H112.119L114.631 217.001L112.72 199.321C112.778 199.2 112.839 199.079 112.897 198.957L108.312 169.95H366.664Z" fill="#FB6D0F"/>
<path d="M100.869 220.157C100.869 220.157 106.828 211.568 112.896 198.957L94.043 79.6919L100.869 220.157Z" fill="black" fill-opacity="0.2"/>
<path d="M237.48 481.627C237.48 481.627 371.291 459.448 371.616 459.122L360.131 217.004L362.081 198.957L380.934 79.6919L268.251 395.413L237.48 481.627Z" fill="black" fill-opacity="0.2"/>
</svg>
