<svg width="475" height="500" viewBox="0 0 475 500" fill="none" xmlns="http://www.w3.org/2000/svg">
<path d="M237.5 500L86.8955 471.407L100.981 237.226L0 178.952C17.1191 102.305 78.9861 37.7257 78.9861 37.7257L174.333 0.000106812C174.333 0.000106812 204.676 15.4469 237.5 15.4469C270.324 15.4469 300.667 0.000106812 300.667 0.000106812L396.014 37.7257C396.014 37.7257 457.881 102.196 475 178.952L374.019 237.226L388.104 471.407L237.5 500Z" fill="#131516"/>
<path d="M237.492 481.624C237.492 481.624 371.303 459.445 371.628 459.119L360.143 217.001L362.093 198.954C364.368 202.868 374.011 220.045 374.12 220.154L455.814 171.339C430.461 87.9516 385.605 50.0085 385.605 50.0085L304.127 13.6963C304.127 13.6963 274.008 29.5802 237.384 29.5802C200.759 29.5802 170.641 13.6963 170.641 13.6963L89.163 50.0085C89.163 50.0085 44.3067 87.8428 18.9531 171.339L100.648 220.154C100.648 220.154 110.399 202.868 112.675 198.954L114.625 217.001L103.14 459.119L237.275 481.624H237.492Z" fill="white"/>
<path d="M385.605 50.0088C385.621 50.0218 387.993 52.0316 391.946 56.1279L109.072 460.114L103.141 459.119L104.876 422.521L370.443 43.251L385.605 50.0088Z" fill="#044F22"/>
<path d="M347.183 32.8848L107.094 375.768L109.311 329.015L323.922 22.5186L347.183 32.8848Z" fill="#7A0000"/>
<rect x="142" y="131.754" width="190" height="176" rx="50" fill="white"/>
<path d="M100.873 220.157C100.873 220.157 106.832 211.568 112.9 198.957L94.0469 79.6919L100.873 220.157Z" fill="black" fill-opacity="0.2"/>
<path d="M237.484 481.627C237.484 481.627 371.295 459.448 371.62 459.122L360.135 217.004L362.085 198.957L380.938 79.6919L268.255 395.413L237.484 481.627Z" fill="black" fill-opacity="0.2"/>
</svg>
