<svg width="475" height="500" viewBox="0 0 475 500" fill="none" xmlns="http://www.w3.org/2000/svg">
<path d="M237.5 500L86.8955 471.407L100.981 237.225L0 178.952C17.1191 102.305 78.9861 37.7256 78.9861 37.7256L174.333 0C174.333 0 204.676 15.4468 237.5 15.4468C270.324 15.4468 300.667 0 300.667 0L396.014 37.7256C396.014 37.7256 457.881 102.196 475 178.952L374.019 237.225L388.104 471.407L237.5 500Z" fill="#131516"/>
<path d="M237.492 481.624C237.492 481.624 371.303 459.445 371.628 459.119L360.143 217.001L362.093 198.954C364.368 202.868 374.011 220.045 374.12 220.154L455.814 171.339C430.461 87.9516 385.605 50.0085 385.605 50.0085L304.127 13.6963C304.127 13.6963 274.008 29.5802 237.384 29.5802C200.759 29.5802 170.641 13.6963 170.641 13.6963L89.163 50.0085C89.163 50.0085 44.3067 87.8428 18.9531 171.339L100.648 220.154C100.648 220.154 110.399 202.868 112.675 198.954L114.625 217.001L103.14 459.119L237.275 481.624H237.492Z" fill="white"/>
<path d="M258 478.221C245.693 480.265 237.517 481.621 237.496 481.624H237.279L218 478.389V28.166C224.145 29.0419 230.656 29.5801 237.388 29.5801C244.568 29.5801 251.498 28.967 258 27.9854V478.221Z" fill="#0B7857"/>
<path d="M171.145 13.9502C172.119 14.4398 174.49 15.5928 178 17.0654V471.678L138 464.967V28.2451L170.076 13.9502H171.145Z" fill="#0B7857"/>
<path d="M338 28.79V464.879C325.854 466.918 311.741 469.276 298 471.565V16.5459C300.839 15.3237 302.775 14.3805 303.631 13.9502H304.7L338 28.79Z" fill="#0B7857"/>
<path d="M100.873 220.157C100.873 220.157 106.832 211.568 112.9 198.957L94.0469 79.6919L100.873 220.157Z" fill="black" fill-opacity="0.2"/>
<path d="M237.484 481.627C237.484 481.627 371.295 459.448 371.62 459.122L360.135 217.004L362.085 198.957L380.938 79.6919L268.255 395.413L237.484 481.627Z" fill="black" fill-opacity="0.2"/>
</svg>
