<svg width="475" height="500" viewBox="0 0 475 500" fill="none" xmlns="http://www.w3.org/2000/svg">
<path d="M237.5 500L86.8955 471.407L100.981 237.225L0 178.952C17.1191 102.305 78.9861 37.7256 78.9861 37.7256L174.333 0C174.333 0 204.676 15.4468 237.5 15.4468C270.324 15.4468 300.667 0 300.667 0L396.014 37.7256C396.014 37.7256 457.881 102.196 475 178.952L374.019 237.225L388.104 471.407L237.5 500Z" fill="#131516"/>
<path d="M237.492 481.624C237.492 481.624 371.303 459.445 371.628 459.119L360.143 217.001L362.093 198.954C364.368 202.868 374.011 220.045 374.12 220.154L455.814 171.339C430.461 87.9516 385.605 50.0085 385.605 50.0085L304.127 13.6963C304.127 13.6963 274.008 29.5802 237.384 29.5802C200.759 29.5802 170.641 13.6963 170.641 13.6963L89.163 50.0085C89.163 50.0085 44.3067 87.8428 18.9531 171.339L100.648 220.154C100.648 220.154 110.399 202.868 112.675 198.954L114.625 217.001L103.14 459.119L237.275 481.624H237.492Z" fill="#0E1A36"/>
<path d="M371.633 459.119C371.308 459.445 237.498 481.624 237.498 481.624H237.281L237.39 29.5802C274.014 29.5802 304.132 13.6963 304.132 13.6963L385.61 50.0085C385.61 50.0085 430.467 87.9516 455.82 171.339L374.125 220.154C374.076 220.104 372.023 216.468 369.594 212.166C366.725 207.084 363.331 201.074 362.099 198.954L360.149 217.001L371.633 459.119Z" fill="#9E0B22"/>
<path d="M100.873 220.157C100.873 220.157 106.832 211.568 112.9 198.956L94.0469 79.6914L100.873 220.157Z" fill="black" fill-opacity="0.2"/>
<path d="M237.484 481.627C237.484 481.627 371.295 459.448 371.62 459.122L360.135 217.004L362.085 198.956L380.938 79.6914L268.255 395.412L237.484 481.627Z" fill="black" fill-opacity="0.2"/>
<path d="M104.338 213.622C102.266 217.286 100.647 220.154 100.647 220.154L18.9531 171.339C19.7328 168.771 20.53 166.246 21.3447 163.765L104.338 213.622Z" fill="#D3BC8E"/>
<path d="M453.328 163.469C454.178 166.046 455.01 168.669 455.821 171.339L374.127 220.154C374.083 220.11 372.473 217.261 370.422 213.629L453.328 163.469Z" fill="#D3BC8E"/>
<path d="M313.768 17.9922C313.463 18.1399 313.045 18.3417 312.521 18.5879C311.372 19.1266 309.712 19.8853 307.614 20.79C303.421 22.5979 297.457 24.999 290.312 27.3994C276.118 32.1687 256.843 37.0801 237.384 37.0801C217.917 37.0801 198.818 32.1657 184.789 27.3896C177.73 24.9864 171.852 22.5823 167.723 20.7715C165.656 19.8652 164.022 19.1056 162.892 18.5654C162.326 18.2953 161.886 18.0801 161.581 17.9287C161.504 17.8903 161.435 17.8554 161.375 17.8252L170.642 13.6963C170.765 13.7614 200.835 29.5801 237.384 29.5801C274.008 29.5801 304.127 13.6963 304.127 13.6963L313.768 17.9922Z" fill="#D3BC8E"/>
</svg>
