<svg width="475" height="500" viewBox="0 0 475 500" fill="none" xmlns="http://www.w3.org/2000/svg">
<path d="M237.5 500L86.8955 471.407L100.981 237.225L0 178.952C17.1191 102.305 78.9861 37.7256 78.9861 37.7256L174.333 0C174.333 0 204.676 15.4468 237.5 15.4468C270.324 15.4468 300.667 0 300.667 0L396.014 37.7256C396.014 37.7256 457.881 102.196 475 178.952L374.019 237.225L388.104 471.407L237.5 500Z" fill="#131516"/>
<path d="M237.5 481.624C237.5 481.624 371.31 459.445 371.635 459.119L360.151 217.001L362.101 198.954C364.376 202.868 374.019 220.045 374.128 220.154L455.822 171.339C430.469 87.9516 385.612 50.0085 385.612 50.0085L304.134 13.6963C304.134 13.6963 274.016 29.5802 237.392 29.5802C200.767 29.5802 170.649 13.6963 170.649 13.6963L89.1708 50.0085C89.1708 50.0085 44.3145 87.8428 18.9609 171.339L100.656 220.154C100.656 220.154 110.407 202.868 112.682 198.954L114.633 217.001L103.148 459.119L237.283 481.624H237.5Z" fill="#1E1E1E"/>
<path d="M237.493 481.624C237.493 481.624 371.303 459.445 371.628 459.119L360.143 217.001L362.094 198.954L380.997 79.5L103.141 459.119L237.276 481.624H237.493Z" fill="#740727"/>
<path d="M100.873 220.157C100.873 220.157 106.832 211.568 112.9 198.957L94.0469 79.6919L100.873 220.157Z" fill="black" fill-opacity="0.2"/>
<path d="M237.477 481.627C237.477 481.627 371.287 459.448 371.612 459.122L360.127 217.004L362.077 198.957L380.93 79.6919L268.248 395.413L237.477 481.627Z" fill="black" fill-opacity="0.2"/>
</svg>
