<svg width="512" height="492" viewBox="0 0 512 492" fill="none" xmlns="http://www.w3.org/2000/svg">
<path d="M194.233 2.49023C194.237 2.49228 194.243 2.49501 194.249 2.49805C194.281 2.51443 194.341 2.54473 194.428 2.58887C194.602 2.67743 194.887 2.82037 195.275 3.00879C196.053 3.3859 197.244 3.94695 198.804 4.63086C201.927 6.00041 206.504 7.85269 212.173 9.71191C223.573 13.451 239.06 17.1064 255.851 17.1064C272.644 17.1064 288.188 13.4506 299.65 9.70801C305.349 7.84718 309.956 5.99249 313.103 4.62109C314.673 3.93632 315.874 3.37412 316.658 2.99609C317.05 2.80716 317.338 2.66423 317.515 2.5752C317.603 2.53073 317.664 2.50002 317.696 2.4834C317.7 2.4813 317.704 2.47917 317.707 2.47754L322.425 0.0078125L412.103 39.9746L413.887 43.1611L404.288 48.5352C413.697 43.2678 413.883 43.1646 413.888 43.1641C413.888 43.1652 413.889 43.1676 413.891 43.1699C413.893 43.1746 413.898 43.181 413.902 43.1895C413.912 43.2064 413.926 43.2308 413.943 43.2627C413.979 43.3271 414.032 43.4226 414.102 43.5469C414.24 43.7954 414.444 44.1625 414.71 44.6426C415.243 45.6035 416.024 47.0183 417.025 48.8447C419.028 52.4975 421.913 57.8001 425.451 64.4199C432.525 77.6562 442.223 96.1777 452.72 117.329C473.629 159.461 498.025 212.65 510.984 255.33L511.918 258.405L463.69 430.252L398.195 391.703L401.762 466.881L255.959 491.304L110.156 466.881L113.722 391.703L113.209 392.006L48.2275 430.252L0 258.405L0.933594 255.33C13.8933 212.65 38.2893 159.461 59.1982 117.329C69.6951 96.1777 79.3926 77.6562 86.4668 64.4199C90.0047 57.8002 92.8888 52.4975 94.8916 48.8447C95.8931 47.0182 96.6753 45.6035 97.208 44.6426C97.4741 44.1625 97.6779 43.7954 97.8164 43.5469C97.8857 43.4226 97.9386 43.3271 97.9746 43.2627C97.9924 43.2308 98.0062 43.2064 98.0156 43.1895C98.0203 43.181 98.0247 43.1746 98.0273 43.1699C98.0286 43.1676 98.0296 43.1652 98.0303 43.1641C98.0364 43.1655 98.2586 43.2887 107.63 48.5352L98.0312 43.1611L99.8154 39.9746L189.512 0L194.233 2.49023ZM119.66 235.48C114.839 242.871 110.09 250.139 106.546 255.559C105.103 257.765 103.859 259.665 102.893 261.143L115.375 356.858L121.248 233.042C120.717 233.856 120.188 234.671 119.66 235.48ZM396.542 356.858L409.024 261.143C408.058 259.665 406.815 257.765 405.372 255.559C401.828 250.139 397.079 242.871 392.258 235.48C391.729 234.671 391.2 233.856 390.669 233.042L396.542 356.858ZM194.226 2.48535C194.227 2.48607 194.229 2.48708 194.231 2.48828C194.232 2.48877 194.233 2.48981 194.233 2.49023C194.227 2.48677 194.224 2.48493 194.223 2.48438C194.223 2.4846 194.224 2.48463 194.226 2.48535ZM317.721 2.4707C317.719 2.47137 317.718 2.47254 317.716 2.47363C317.72 2.47146 317.723 2.4702 317.724 2.46973C317.723 2.46995 317.722 2.47001 317.721 2.4707Z" fill="#131516"/>
<path d="M189.11 12.2227C189.11 12.2227 219.228 28.1065 255.853 28.1065C292.477 28.1065 322.812 12.2227 322.812 12.2227L404.29 48.5349C404.29 48.5349 475.107 175.03 500.461 258.526L456.961 413.526L404.29 382.526L420.461 258.526C420.461 258.526 383.054 201.394 380.778 197.48L378.828 215.528L390.313 457.646L255.961 480.15L121.609 457.646L133.094 215.528L131.143 197.48C128.868 201.394 91.4609 258.526 91.4609 258.526L107.632 382.526L54.9609 413.526L11.4609 258.526C36.8145 175.03 107.632 48.5349 107.632 48.5349L189.11 12.2227Z" fill="#1E1E1E"/>
<path d="M119.461 215.526L130.961 197.526L112.508 78.2183L119.461 215.526Z" fill="black" fill-opacity="0.2"/>
<path d="M255.938 480.153C255.938 480.153 389.748 457.975 390.073 457.649L378.588 215.531L380.538 197.483L399.391 78.2183L286.708 393.939L255.938 480.153Z" fill="black" fill-opacity="0.2"/>
</svg>
