<svg width="475" height="500" viewBox="0 0 475 500" fill="none" xmlns="http://www.w3.org/2000/svg">
<path d="M237.5 500L86.8955 471.407L100.981 237.225L0 178.952C17.1191 102.305 78.9861 37.7256 78.9861 37.7256L174.333 0C174.333 0 204.676 15.4468 237.5 15.4468C270.324 15.4468 300.667 0 300.667 0L396.014 37.7256C396.014 37.7256 457.881 102.196 475 178.952L374.019 237.225L388.104 471.407L237.5 500Z" fill="#131516"/>
<path d="M237.496 481.624C237.496 481.624 371.307 459.445 371.632 459.119L360.147 217.001L362.097 198.954C364.372 202.868 374.015 220.045 374.124 220.154L455.818 171.339C430.465 87.9516 385.608 50.0085 385.608 50.0085L304.13 13.6963C304.13 13.6963 274.012 29.5802 237.388 29.5802C200.763 29.5802 170.645 13.6963 170.645 13.6963L89.1669 50.0085C89.1669 50.0085 44.3106 87.8428 18.957 171.339L100.652 220.154C100.652 220.154 110.403 202.868 112.679 198.954L114.629 217.001L103.144 459.119L237.279 481.624H237.496Z" fill="#51218B"/>
<path d="M366.664 169.95L362.099 198.954L360.148 217.001L362.66 269.95H112.119L114.631 217.001L112.72 199.321C112.778 199.2 112.839 199.079 112.897 198.957L108.312 169.95H366.664Z" fill="#FB6D0F"/>
<path d="M100.869 220.157C100.869 220.157 106.828 211.568 112.896 198.957L94.043 79.6919L100.869 220.157Z" fill="black" fill-opacity="0.2"/>
<path d="M237.48 481.627C237.48 481.627 371.291 459.448 371.616 459.122L360.131 217.004L362.081 198.957L380.934 79.6919L268.251 395.413L237.48 481.627Z" fill="black" fill-opacity="0.2"/>
<path d="M196.47 295.031C189.811 295.031 183.707 293.436 178.158 290.245C172.609 286.916 168.17 282.546 164.841 277.135C161.65 271.586 160.055 265.413 160.055 258.616V181.623C160.055 174.825 161.65 168.721 164.841 163.311C168.17 157.762 172.609 153.392 178.158 150.201C183.707 146.872 189.811 145.207 196.47 145.207C203.129 145.207 209.233 146.872 214.782 150.201C220.331 153.392 224.701 157.762 227.892 163.311C231.221 168.721 232.886 174.825 232.886 181.623V258.616C232.886 265.413 231.221 271.586 227.892 277.135C224.701 282.546 220.331 286.916 214.782 290.245C209.233 293.436 203.129 295.031 196.47 295.031ZM196.47 267.563C197.996 267.563 199.245 267.078 200.216 266.107C201.187 264.997 201.672 263.748 201.672 262.361V177.669C201.672 176.143 201.187 174.895 200.216 173.923C199.245 172.814 197.996 172.259 196.47 172.259C194.944 172.259 193.626 172.814 192.517 173.923C191.545 174.895 191.06 176.143 191.06 177.669V262.361C191.06 263.748 191.545 264.997 192.517 266.107C193.626 267.078 194.944 267.563 196.47 267.563ZM277.958 295.031C271.299 295.031 265.195 293.436 259.646 290.245C254.097 286.916 249.658 282.546 246.329 277.135C243.138 271.586 241.543 265.413 241.543 258.616V181.623C241.543 174.825 243.138 168.721 246.329 163.311C249.658 157.762 254.097 153.392 259.646 150.201C265.195 146.872 271.299 145.207 277.958 145.207C284.617 145.207 290.721 146.872 296.27 150.201C301.819 153.392 306.189 157.762 309.379 163.311C312.709 168.721 314.374 174.825 314.374 181.623V258.616C314.374 265.413 312.709 271.586 309.379 277.135C306.189 282.546 301.819 286.916 296.27 290.245C290.721 293.436 284.617 295.031 277.958 295.031ZM277.958 267.563C279.484 267.563 280.733 267.078 281.704 266.107C282.675 264.997 283.16 263.748 283.16 262.361V177.669C283.16 176.143 282.675 174.895 281.704 173.923C280.733 172.814 279.484 172.259 277.958 172.259C276.432 172.259 275.114 172.814 274.004 173.923C273.033 174.895 272.548 176.143 272.548 177.669V262.361C272.548 263.748 273.033 264.997 274.004 266.107C275.114 267.078 276.432 267.563 277.958 267.563Z" fill="white"/>
</svg>
